<svg width="22" height="12" viewBox="0 0 22 12" fill="none" xmlns="http://www.w3.org/2000/svg">
<path d="M0.322416 0.325328C0.715387 -0.0713874 1.33211 -0.106946 1.76238 0.227816L1.87479 0.328303L11.4436 10.0964C11.8723 10.5336 11.8708 11.24 11.4407 11.6743C11.2271 11.8899 10.9461 12 10.6667 12C10.4314 12 10.1971 11.9236 10.0019 11.7716L9.88976 11.6713L0.320955 1.90327C-0.10774 1.46603 -0.106277 0.759596 0.322416 0.325328ZM19.4574 0.328452C19.8861 -0.110277 20.5811 -0.107303 21.0098 0.325478C21.4041 0.723557 21.4382 1.35033 21.112 1.78881L21.0142 1.90342L14.6598 8.39067C14.4462 8.60929 14.1638 8.71934 13.8829 8.71934C13.6035 8.71934 13.3225 8.60929 13.1089 8.39364C12.7146 7.99556 12.6805 7.36879 13.0067 6.93031L13.1045 6.8157L19.4574 0.328452Z" fill="#4A4A4A"/>
</svg>
