<svg width="21" height="13" viewBox="0 0 21 13" fill="none" xmlns="http://www.w3.org/2000/svg">
<path fill-rule="evenodd" clip-rule="evenodd" d="M19.9759 6.006C18.1503 2.35138 14.4281 0.0306168 10.3429 0C6.25773 0.0312673 2.53563 2.35232 0.709939 6.007C0.553718 6.31781 0.553718 6.68419 0.709939 6.995C2.53583 10.6492 6.25804 12.9696 10.3429 13C14.4281 12.9687 18.1502 10.6477 19.9759 6.993C20.1318 6.68247 20.1318 6.31653 19.9759 6.006ZM10.3429 11.376C7.65081 11.3754 5.46875 9.19279 5.46894 6.50067C5.46912 3.80854 7.65148 1.62618 10.3436 1.626C13.0357 1.62582 15.2184 3.80787 15.2189 6.5C15.2192 7.79328 14.7056 9.03366 13.7911 9.94815C12.8766 10.8626 11.6362 11.3763 10.3429 11.376ZM9.48594 3.378C9.76455 3.297 10.0528 3.25394 10.3429 3.25C11.734 3.24673 12.9722 4.13095 13.4205 5.44776C13.8688 6.76456 13.4275 8.22064 12.3234 9.06687C11.2194 9.9131 9.69866 9.961 8.54357 9.18591C7.38848 8.41082 6.85635 6.98541 7.22094 5.643C7.86577 6.11764 8.76062 6.05 9.32678 5.48384C9.89294 4.91768 9.96057 4.02283 9.48594 3.378Z" fill="#B8B8B8"/>
</svg>
