<svg width="21" height="21" viewBox="0 0 21 21" fill="none" xmlns="http://www.w3.org/2000/svg">
<path fill-rule="evenodd" clip-rule="evenodd" d="M19.2996 14.389C17.952 14.3911 16.6127 14.1774 15.3326 13.756C14.9346 13.6296 14.4993 13.7322 14.1996 14.023L11.7556 16.467C8.60154 14.8628 6.03784 12.2991 4.43364 9.145L6.87764 6.689C7.17805 6.40399 7.28641 5.9709 7.15564 5.578C6.73424 4.29793 6.52053 2.95865 6.52264 1.611C6.52099 0.997706 6.02394 0.501099 5.41064 0.5H1.52164C0.908741 0.501648 0.412293 0.998096 0.410645 1.611C0.410114 6.62084 2.40003 11.4256 5.94252 14.9681C9.48501 18.5106 14.2898 20.5005 19.2996 20.5C19.9125 20.4984 20.409 20.0019 20.4106 19.389V15.5C20.409 14.8871 19.9125 14.3906 19.2996 14.389ZM18.1886 10.5H20.4106C20.4106 7.84784 19.3571 5.3043 17.4817 3.42893C15.6063 1.55357 13.0628 0.5 10.4106 0.5V2.722C12.474 2.72041 14.4533 3.53936 15.9123 4.99836C17.3713 6.45737 18.1902 8.43666 18.1886 10.5ZM15.9666 10.5H13.7446H13.7436C13.745 9.61553 13.3943 8.7669 12.769 8.14139C12.1436 7.51589 11.2951 7.16494 10.4106 7.166V4.944C13.4787 4.9451 15.9655 7.43196 15.9666 10.5Z" fill="#42B013"/>
</svg>
