<svg width="26" height="26" viewBox="0 0 26 26" fill="none" xmlns="http://www.w3.org/2000/svg">
<path fill-rule="evenodd" clip-rule="evenodd" d="M1.5325 7.814C3.49135 3.08465 8.10625 0.00100724 13.2252 0.00100724C16.5818 0.000477029 19.801 1.33357 22.1746 3.70692C24.5481 6.08028 25.8815 9.29944 25.8812 12.656C25.8816 17.775 22.7983 22.3901 18.0692 24.3493C13.34 26.3086 7.89623 25.226 4.27643 21.6065C0.65663 17.987 -0.426347 12.5433 1.5325 7.814ZM19.9622 14.698C20.2998 14.6969 20.5731 14.4235 20.5742 14.086L20.5732 11.227C20.5721 10.8895 20.2988 10.6161 19.9612 10.615H15.2662V5.92001C15.2651 5.58246 14.9918 5.3091 14.6542 5.30801H11.7962C11.4587 5.3091 11.1853 5.58246 11.1842 5.92001V10.615H6.48922C6.15168 10.6161 5.87832 10.8895 5.87722 11.227V14.086C5.87832 14.4235 6.15168 14.6969 6.48922 14.698H11.1842V19.393C11.1853 19.7305 11.4587 20.0039 11.7962 20.005H14.6552C14.9928 20.0039 15.2661 19.7305 15.2672 19.393V14.698H19.9622Z" fill="#1C2340"/>
</svg>
