<svg width="20" height="20" viewBox="0 0 20 20" fill="none" xmlns="http://www.w3.org/2000/svg">
<path fill-rule="evenodd" clip-rule="evenodd" d="M4 0C1.79086 0 0 1.79086 0 4V16C0 18.2091 1.79086 20 4 20H16C18.2091 20 20 18.2091 20 16V4C20 1.79086 18.2091 0 16 0H4ZM3 4C3 3.44772 3.44772 3 4 3H5C5.55228 3 6 3.44772 6 4V5C6 5.55228 5.55228 6 5 6H4C3.44772 6 3 5.55228 3 5V4ZM3 9.5C3 8.94772 3.44772 8.5 4 8.5H5C5.55228 8.5 6 8.94772 6 9.5V10.5C6 11.0523 5.55228 11.5 5 11.5H4C3.44772 11.5 3 11.0523 3 10.5V9.5ZM4 14C3.44772 14 3 14.4477 3 15V16C3 16.5523 3.44772 17 4 17H5C5.55228 17 6 16.5523 6 16V15C6 14.4477 5.55228 14 5 14H4ZM8.5 4C8.5 3.44772 8.94772 3 9.5 3H10.5C11.0523 3 11.5 3.44772 11.5 4V5C11.5 5.55228 11.0523 6 10.5 6H9.5C8.94772 6 8.5 5.55228 8.5 5V4ZM9.5 8.5C8.94772 8.5 8.5 8.94772 8.5 9.5V10.5C8.5 11.0523 8.94772 11.5 9.5 11.5H10.5C11.0523 11.5 11.5 11.0523 11.5 10.5V9.5C11.5 8.94772 11.0523 8.5 10.5 8.5H9.5ZM8.5 15C8.5 14.4477 8.94772 14 9.5 14H10.5C11.0523 14 11.5 14.4477 11.5 15V16C11.5 16.5523 11.0523 17 10.5 17H9.5C8.94772 17 8.5 16.5523 8.5 16V15ZM15 3C14.4477 3 14 3.44772 14 4V5C14 5.55228 14.4477 6 15 6H16C16.5523 6 17 5.55228 17 5V4C17 3.44772 16.5523 3 16 3H15ZM14 9.5C14 8.94772 14.4477 8.5 15 8.5H16C16.5523 8.5 17 8.94772 17 9.5V10.5C17 11.0523 16.5523 11.5 16 11.5H15C14.4477 11.5 14 11.0523 14 10.5V9.5ZM15 14C14.4477 14 14 14.4477 14 15V16C14 16.5523 14.4477 17 15 17H16C16.5523 17 17 16.5523 17 16V15C17 14.4477 16.5523 14 16 14H15Z" fill="#1C2340"/>
</svg>
