<svg width="11" height="13" viewBox="0 0 11 13" fill="none" xmlns="http://www.w3.org/2000/svg">
<path fill-rule="evenodd" clip-rule="evenodd" d="M9.859 12.2709C8.73376 12.5845 7.56762 12.7265 6.4 12.6919C3.665 12.6919 0 12.2349 0 8.28494C0.0379192 5.95095 1.23548 3.78905 3.194 2.51894C3.05322 2.35034 2.9745 2.13856 2.971 1.91894C2.971 1.37826 3.40931 0.939942 3.95 0.939942H8.847C9.10717 0.939677 9.35674 1.04298 9.54061 1.22704C9.72448 1.4111 9.82753 1.66078 9.827 1.92094C9.8233 2.1407 9.74422 2.35252 9.603 2.52094C9.9323 2.73299 10.2431 2.97251 10.532 3.23694C10.1241 3.53144 9.86761 3.99149 9.83152 4.49329C9.79542 4.99509 9.98345 5.4871 10.345 5.83694C10.0126 6.15736 9.82476 6.59922 9.82476 7.06094C9.82476 7.52266 10.0126 7.96452 10.345 8.28494C10.0126 8.60536 9.82476 9.04722 9.82476 9.50894C9.82476 9.97066 10.0126 10.4125 10.345 10.7329C9.93107 11.129 9.74782 11.7089 9.859 12.2709ZM4.94507 6.72031C5.06495 7.42599 5.67721 7.94172 6.393 7.93994C6.66362 7.93994 6.883 8.15932 6.883 8.42994C6.883 8.70056 6.66362 8.91994 6.393 8.91994C6.12238 8.91994 5.903 8.70056 5.903 8.42994C5.91115 8.24978 5.81967 8.07971 5.66486 7.9872C5.51006 7.89468 5.31694 7.89468 5.16214 7.9872C5.00733 8.07971 4.91585 8.24978 4.924 8.42994C4.92606 9.05241 5.32099 9.60571 5.909 9.80994V10.2449C5.90086 10.4251 5.99233 10.5952 6.14714 10.6877C6.30194 10.7802 6.49506 10.7802 6.64986 10.6877C6.80467 10.5952 6.89615 10.4251 6.888 10.2449V9.80694C7.55901 9.56639 7.95974 8.87802 7.83759 8.17573C7.71544 7.47345 7.10583 6.96081 6.393 6.96094C6.12238 6.96094 5.903 6.74156 5.903 6.47094C5.903 6.20032 6.12238 5.98094 6.393 5.98094C6.66362 5.98094 6.883 6.20032 6.883 6.47094C6.89483 6.73269 7.11049 6.93881 7.3725 6.93881C7.63451 6.93881 7.85017 6.73269 7.862 6.47094C7.86003 5.85253 7.47045 5.30177 6.888 5.09394V4.36894C6.89615 4.18878 6.80467 4.01871 6.64986 3.9262C6.49506 3.83368 6.30194 3.83368 6.14714 3.9262C5.99233 4.01871 5.90086 4.18878 5.909 4.36894V5.09094C5.23279 5.32565 4.82518 6.01463 4.94507 6.72031Z" fill="#1C2340"/>
</svg>
