<svg width="21" height="17" viewBox="0 0 21 17" fill="none" xmlns="http://www.w3.org/2000/svg">
<path fill-rule="evenodd" clip-rule="evenodd" d="M11.551 4.2C11.551 6.5196 9.6706 8.4 7.351 8.4C5.0314 8.4 3.151 6.5196 3.151 4.2C3.151 1.8804 5.0314 0 7.351 0C9.6706 0 11.551 1.8804 11.551 4.2ZM9.743 9.45H10.291L10.295 9.447C11.5516 9.44974 12.7461 9.99379 13.573 10.94L11.036 13.477L10.777 13.736L10.738 14.1L10.515 16.1C10.4901 16.3368 10.5192 16.5761 10.6 16.8H1.575C0.70616 16.7994 0.00165371 16.0958 0 15.227V13.862C0 11.4261 1.9741 9.4511 4.41 9.45H4.958C6.47614 10.1503 8.22486 10.1503 9.743 9.45ZM11.778 14.218L11.555 16.218C11.5369 16.3762 11.5919 16.5339 11.7045 16.6465C11.8171 16.7591 11.9748 16.8141 12.133 16.796L14.133 16.573L18.658 12.048L16.3 9.7L11.778 14.218ZM19.529 7.581L20.773 8.823L20.772 8.824C21.077 9.13191 21.077 9.62809 20.772 9.936L19.4 11.308L17.045 8.956L17.18 8.821L18.42 7.581C18.7267 7.27576 19.2223 7.27576 19.529 7.581Z" fill="#1C2340"/>
</svg>
