<svg width="20" height="19" viewBox="0 0 20 19" fill="none" xmlns="http://www.w3.org/2000/svg">
<path fill-rule="evenodd" clip-rule="evenodd" d="M14.2511 17.5965C17.4658 16.0549 19.5085 12.8032 19.5019 9.238C19.4962 5.53745 17.2857 2.19639 13.8821 0.743874C10.4785 -0.708642 6.53684 0.0068879 3.86095 2.56299L2.01595 0.715995C1.84418 0.54838 1.58906 0.499243 1.36733 0.59107C1.1456 0.682896 0.999916 0.898018 0.996948 1.13799V6.56299C0.996948 6.89437 1.26558 7.16299 1.59695 7.16299H7.01595C7.25592 7.16003 7.47105 7.01434 7.56287 6.79261C7.6547 6.57088 7.60556 6.31576 7.43795 6.14399L5.54895 4.24999C8.21715 1.74488 12.3816 1.77386 15.0146 4.31588C17.6477 6.85789 17.8232 11.0187 15.4135 13.7734C13.0038 16.5281 8.85659 16.9076 5.98695 14.636C5.62848 14.3567 5.11805 14.3884 4.79695 14.71L4.37695 15.13C4.19912 15.31 4.10527 15.5565 4.1184 15.8092C4.13153 16.0619 4.25042 16.2974 4.44595 16.458C7.22188 18.6952 11.0364 19.1381 14.2511 17.5965ZM13.1199 11.706L12.7539 12.177L12.7409 12.175C12.436 12.5626 11.8759 12.6326 11.4849 12.332L9.04495 10.432V5.37199C9.04495 4.87494 9.44789 4.47199 9.94495 4.47199H10.5449C11.042 4.47199 11.4449 4.87494 11.4449 5.37199V9.26399L12.9629 10.45C13.3506 10.7549 13.4206 11.315 13.1199 11.706Z" fill="#1C2340"/>
</svg>
