<svg width="20" height="19" viewBox="0 0 20 19" fill="none" xmlns="http://www.w3.org/2000/svg">
<path d="M9.81304 18.007L8.39004 16.707C3.33604 12.129 4.21961e-05 9.10704 4.21961e-05 5.40004C-0.0148188 3.96337 0.549335 2.58121 1.56527 1.56527C2.58121 0.549335 3.96337 -0.0148188 5.40004 4.21961e-05C7.09934 0.0131079 8.7098 0.76108 9.81604 2.05104C10.9216 0.761866 12.5308 0.0139727 14.229 4.21961e-05C15.6657 -0.0148188 17.0479 0.549335 18.0638 1.56527C19.0798 2.58121 19.6439 3.96337 19.629 5.40004C19.629 9.10904 16.293 12.132 11.239 16.724L9.81304 18.007Z" fill="#1C2340"/>
</svg>
