<svg width="14" height="16" viewBox="0 0 14 16" fill="none" xmlns="http://www.w3.org/2000/svg">
<path fill-rule="evenodd" clip-rule="evenodd" d="M11.7641 6.573H12.4641C12.8379 6.57273 13.1966 6.72106 13.461 6.98533C13.7255 7.2496 13.8741 7.60814 13.8741 7.982V13.616C13.8741 13.9897 13.7256 14.3481 13.4614 14.6123C13.1971 14.8766 12.8388 15.025 12.4651 15.025H2.13507C1.35691 15.025 0.726074 14.3942 0.726074 13.616V7.982C0.726068 7.60692 0.875614 7.24732 1.14159 6.98285C1.40756 6.71838 1.768 6.57087 2.14307 6.573H2.84307V4.461C2.87957 2.02357 4.86588 0.0667877 7.30357 0.0667877C9.74127 0.0667877 11.7276 2.02357 11.7641 4.461V6.573ZM5.18707 6.573H9.41207L9.41307 4.461C9.41307 3.29402 8.46705 2.348 7.30007 2.348C6.1331 2.348 5.18707 3.29402 5.18707 4.461V6.573Z" fill="#6D55FE"/>
</svg>
