<svg width="16" height="16" viewBox="0 0 16 16" fill="none" xmlns="http://www.w3.org/2000/svg">
<path d="M9.51294 6.32683C9.3281 6.14103 9.12317 5.97635 8.90194 5.83583C7.46286 4.91433 5.57639 5.11862 4.36794 6.32683L1.06094 9.63483C-0.329985 11.0599 -0.316739 13.3384 1.09066 14.7471C2.49807 16.1559 4.77655 16.1714 6.20294 14.7818L8.93094 12.0538C9.00543 11.9795 9.02773 11.8675 8.98744 11.7703C8.94714 11.6731 8.8522 11.6097 8.74694 11.6098H8.64694C8.07692 11.6119 7.51199 11.5025 6.98394 11.2878C6.88676 11.2479 6.77509 11.2704 6.70094 11.3448L4.73894 13.3088C4.1276 13.905 3.1505 13.8989 2.54668 13.2951C1.94285 12.6913 1.93673 11.7142 2.53294 11.1028L5.85094 7.78783C6.45922 7.18217 7.44266 7.18217 8.05094 7.78783C8.46104 8.17389 9.10084 8.17389 9.51094 7.78783C9.70538 7.59466 9.81472 7.33191 9.81472 7.05783C9.81472 6.78375 9.70538 6.52099 9.51094 6.32783L9.51294 6.32683Z" fill="#1C2340"/>
<path d="M14.525 1.31486C13.8427 0.632573 12.9174 0.249268 11.9525 0.249268C10.9876 0.249268 10.0622 0.632573 9.37999 1.31486L6.65399 4.03786C6.57973 4.11335 6.55844 4.22622 6.6001 4.32357C6.64176 4.42092 6.73811 4.48345 6.84399 4.48186H6.94399C7.51322 4.48092 8.07714 4.59132 8.60399 4.80686C8.70117 4.84678 8.81283 4.82429 8.88699 4.74986L10.844 2.79586C11.4553 2.19964 12.4324 2.20576 13.0363 2.80959C13.6401 3.41342 13.6462 4.39051 13.05 5.00186L10.613 7.43686L10.592 7.45986L9.73999 8.30686C9.13171 8.91252 8.14827 8.91252 7.53999 8.30686C7.12988 7.92079 6.49009 7.92079 6.07999 8.30686C5.67549 8.71143 5.67549 9.36729 6.07999 9.77186C6.38059 10.074 6.73236 10.3205 7.11899 10.4999C7.17399 10.5259 7.22799 10.5469 7.28299 10.5699C7.33799 10.5929 7.39499 10.6119 7.44899 10.6319C7.50299 10.6519 7.56099 10.6709 7.61499 10.6869L7.76799 10.7289C7.86799 10.7549 7.97599 10.7759 8.08199 10.7939C8.21025 10.8128 8.33943 10.8248 8.46899 10.8299H8.66899L8.82499 10.8119C8.88199 10.8119 8.94199 10.7959 9.00999 10.7959H9.09799L9.27699 10.7699L9.35999 10.7539L9.51099 10.7229H9.53999C10.1781 10.5626 10.7608 10.2322 11.226 9.76686L14.534 6.45886C15.9516 5.03575 15.9476 2.733 14.525 1.31486Z" fill="#1C2340"/>
</svg>
