<svg width="18" height="18" viewBox="0 0 18 18" fill="none" xmlns="http://www.w3.org/2000/svg">
<path fill-rule="evenodd" clip-rule="evenodd" d="M8.97694 7.39802H15.5319L15.5299 7.39502C16.5656 7.39612 17.4048 8.23539 17.4059 9.27102V15.826C17.4048 16.8616 16.5656 17.7009 15.5299 17.702H8.97494C8.04615 17.7005 7.25785 17.0205 7.11994 16.102L5.40094 14.874C5.26692 14.7783 5.18738 14.6237 5.18738 14.459C5.18738 14.2943 5.26692 14.1398 5.40094 14.044L7.10094 12.831V9.27402C7.10204 8.23839 7.94131 7.39912 8.97694 7.39802ZM13.0919 14.422C13.1189 14.526 13.2119 14.564 13.3319 14.564C13.5229 14.564 13.7799 14.438 13.7799 14.269C13.7784 14.2503 13.7747 14.2319 13.7689 14.214L12.7149 10.778C12.6659 10.614 12.4639 10.537 12.2559 10.537C12.0691 10.5131 11.8875 10.6097 11.8029 10.778L10.7489 14.214C10.7436 14.232 10.74 14.2504 10.7379 14.269C10.7379 14.444 10.9949 14.564 11.1859 14.564C11.3059 14.564 11.3989 14.522 11.4259 14.422L11.6329 13.695H12.8839L13.0919 14.422Z" fill="#1C2340"/>
<path d="M11.776 13.1379H12.727L12.252 11.4609L11.776 13.1379Z" fill="#1C2340"/>
<path d="M6.081 9.2729C6.08061 8.61392 6.30615 7.97472 6.72 7.4619C6.15971 7.46254 5.61274 7.29115 5.153 6.9709C4.69326 7.29115 4.14629 7.46254 3.586 7.4619C3.4338 7.45292 3.31496 7.32687 3.31496 7.1744C3.31496 7.02193 3.4338 6.89588 3.586 6.8869C3.97838 6.88708 4.36344 6.78062 4.7 6.5789C4.29538 6.14302 4.04339 5.58745 3.982 4.9959H3.582C3.47524 5.0022 3.37378 4.94882 3.3185 4.85727C3.26322 4.76572 3.26322 4.65108 3.3185 4.55953C3.37378 4.46798 3.47524 4.4146 3.582 4.4209H4.865V3.7209C4.8587 3.61414 4.91208 3.51268 5.00363 3.4574C5.09518 3.40211 5.20982 3.40211 5.30137 3.4574C5.39292 3.51268 5.4463 3.61414 5.44 3.7209V4.4209H6.72C6.82676 4.4146 6.92822 4.46798 6.9835 4.55953C7.03878 4.65108 7.03878 4.76572 6.9835 4.85727C6.92822 4.94882 6.82676 5.0022 6.72 4.9959H6.32C6.25805 5.58769 6.00534 6.14329 5.6 6.5789C5.93679 6.78093 6.32226 6.88741 6.715 6.8869C6.86601 6.88653 6.99148 7.00325 7.002 7.1539C7.53663 6.65422 8.24122 6.37646 8.973 6.3769H10.302V5.1649L12 3.9519C12.134 3.85617 12.2136 3.7016 12.2136 3.5369C12.2136 3.3722 12.134 3.21763 12 3.1219L10.286 1.8959C10.148 0.977026 9.35917 0.296972 8.43 0.295898H1.875C0.840151 0.29755 0.0016518 1.13605 0 2.1709V8.7269C0.00110232 9.76253 0.840371 10.6018 1.876 10.6029H6.081V9.2729Z" fill="#1C2340"/>
<path d="M5.15301 6.2198C5.47556 5.88611 5.68269 5.45784 5.74401 4.9978H4.56201C4.62347 5.45779 4.83058 5.88603 5.15301 6.2198Z" fill="#1C2340"/>
</svg>
