<svg width="26" height="26" viewBox="0 0 26 26" fill="none" xmlns="http://www.w3.org/2000/svg">
<circle cx="13" cy="13" r="13" fill="#C9E0F4"/>
<path d="M17.6667 9.8C17.6667 8.52696 17.175 7.30606 16.2998 6.40589C15.4247 5.50571 14.2377 5 13 5C11.7623 5 10.5753 5.50571 9.70017 6.40589C8.825 7.30606 8.33333 8.52696 8.33333 9.8C8.33333 15.4 6 17 6 17H20C20 17 17.6667 15.4 17.6667 9.8Z" stroke="#0377DD" stroke-linecap="round" stroke-linejoin="round"/>
<path d="M15 20C14.8476 20.3042 14.6288 20.5566 14.3655 20.7321C14.1023 20.9076 13.8038 21 13.5 21C13.1962 21 12.8977 20.9076 12.6345 20.7321C12.3712 20.5566 12.1524 20.3042 12 20" stroke="#0377DD" stroke-linecap="round" stroke-linejoin="round"/>
<circle cx="18.5" cy="4.5" r="4.5" fill="#FF5555"/>
<path d="M17.0689 3.32076C17.0981 2.90746 17.2463 2.58401 17.5136 2.3504C17.7808 2.1168 18.1273 2 18.5532 2C18.8372 2 19.0814 2.05615 19.286 2.16846C19.4948 2.27628 19.6514 2.42453 19.7557 2.61321C19.8643 2.80189 19.9186 3.01527 19.9186 3.25337C19.9186 3.5319 19.8434 3.77224 19.6931 3.97439C19.547 4.17655 19.3549 4.30683 19.1169 4.36523V4.39892C19.3883 4.4708 19.6033 4.61231 19.762 4.82345C19.9207 5.03459 20 5.31087 20 5.65229C20 5.90836 19.9457 6.13971 19.8372 6.34636C19.7286 6.54852 19.5658 6.708 19.3486 6.8248C19.1315 6.9416 18.8706 7 18.5658 7C18.1232 7 17.7599 6.87646 17.476 6.62938C17.1921 6.37781 17.0334 6.02291 17 5.56469H17.5511C17.5804 5.83423 17.6827 6.05436 17.858 6.22507C18.0334 6.39578 18.2672 6.48113 18.5595 6.48113C18.8518 6.48113 19.0731 6.40027 19.2234 6.23854C19.3779 6.07233 19.4551 5.85894 19.4551 5.59838C19.4551 5.26146 19.3507 5.01887 19.142 4.87062C18.9332 4.72237 18.618 4.64825 18.1962 4.64825H18.0522V4.13612H18.2025C18.5866 4.13163 18.8768 4.06424 19.0731 3.93396C19.2693 3.79919 19.3674 3.59254 19.3674 3.31402C19.3674 3.07592 19.2944 2.885 19.1482 2.74124C19.0063 2.59748 18.8017 2.52561 18.5344 2.52561C18.2756 2.52561 18.0668 2.59748 17.9081 2.74124C17.7495 2.885 17.6555 3.07817 17.6263 3.32076H17.0689Z" fill="white"/>
</svg>
