<svg width="18" height="15" viewBox="0 0 18 15" fill="none" xmlns="http://www.w3.org/2000/svg">
<path fill-rule="evenodd" clip-rule="evenodd" d="M16.045 0.440074H1.78301C1.31054 0.438723 0.857163 0.626431 0.523922 0.961363C0.19068 1.2963 0.00526907 1.75062 0.00901018 2.22307L1.01784e-05 12.9191C-0.00159086 13.3924 0.185746 13.8469 0.520471 14.1816C0.855196 14.5163 1.30964 14.7037 1.78301 14.7021H16.045C16.5184 14.7037 16.9728 14.5163 17.3075 14.1816C17.6423 13.8469 17.8296 13.3924 17.828 12.9191V2.22307C17.8296 1.7497 17.6423 1.29526 17.3075 0.960535C16.9728 0.62581 16.5184 0.438473 16.045 0.440074ZM16.045 12.9191H1.78301V7.57107H16.045V12.9191ZM1.78301 4.00507H16.045V2.22307H1.78301V4.00507Z" fill="#1C2340"/>
</svg>
