<svg width="15" height="16" viewBox="0 0 15 16" fill="none" xmlns="http://www.w3.org/2000/svg">
<path d="M12.4 9.91399C12.1829 9.66332 11.8676 9.51929 11.536 9.51929C11.2044 9.51929 10.8891 9.66332 10.672 9.91399C10.272 10.314 9.86401 10.714 9.47201 11.122C9.43618 11.1745 9.38081 11.2106 9.31825 11.222C9.25569 11.2335 9.19114 11.2194 9.13901 11.183C8.87801 11.04 8.59901 10.925 8.34801 10.769C7.19743 10.0241 6.17687 9.09539 5.32701 8.01999C4.88488 7.4968 4.52016 6.91285 4.24401 6.28599C4.18221 6.17928 4.2082 6.04337 4.30501 5.96699C4.70501 5.57699 5.10501 5.17599 5.50001 4.77599C5.76357 4.55809 5.91615 4.23396 5.91615 3.89199C5.91615 3.55002 5.76357 3.22589 5.50001 3.00799C5.18401 2.68899 4.86901 2.37699 4.55301 2.05799C4.23701 1.73899 3.90501 1.40299 3.57601 1.08099C3.35767 0.832429 3.04285 0.689941 2.71201 0.689941C2.38117 0.689941 2.06635 0.832429 1.84801 1.08099C1.44101 1.48099 1.04801 1.89199 0.636012 2.28099C0.266961 2.62734 0.0456173 3.10262 0.0180117 3.60799C-0.0176392 4.4368 0.130571 5.26323 0.452012 6.02799C1.06356 7.61758 1.9467 9.0888 3.06201 10.376C4.52824 12.1343 6.35155 13.5609 8.41101 14.561C9.33077 15.0444 10.3385 15.3376 11.374 15.423C12.0732 15.5026 12.7676 15.2383 13.237 14.714C13.583 14.327 13.973 13.974 14.337 13.604C14.5953 13.3856 14.7449 13.0649 14.7463 12.7266C14.7476 12.3883 14.6006 12.0665 14.344 11.846C13.6973 11.202 13.0493 10.558 12.4 9.91399Z" fill="#1C2340"/>
</svg>
