<svg width="22" height="23" viewBox="0 0 22 23" fill="none" xmlns="http://www.w3.org/2000/svg">
<path fill-rule="evenodd" clip-rule="evenodd" d="M21 8.97897C19.9557 9.37909 19.2661 10.3816 19.266 11.5C19.2686 12.6193 19.9579 13.6223 21.002 14.026C20.7358 15.1289 20.2971 16.1829 19.702 17.149C18.6824 16.6992 17.4912 16.9221 16.7032 17.7101C15.9152 18.4981 15.6923 19.6893 16.142 20.709C15.1764 21.305 14.1223 21.7438 13.019 22.009C12.6148 20.9724 11.6161 20.2899 10.5035 20.2899C9.3909 20.2899 8.39222 20.9724 7.988 22.009C6.88504 21.7428 5.83105 21.304 4.865 20.709C5.31474 19.6893 5.09183 18.4981 4.30383 17.7101C3.51582 16.9221 2.32463 16.6992 1.305 17.149C0.708979 16.1834 0.270175 15.1293 0.005 14.026C1.04864 13.6246 1.73689 12.6214 1.73578 11.5032C1.73467 10.3851 1.04444 9.38329 0 8.98397C0.266188 7.88387 0.701358 6.8317 1.29 5.86497C1.63562 6.02114 2.01074 6.10128 2.39 6.09997C3.30468 6.10005 4.1572 5.63703 4.65512 4.86976C5.15304 4.10249 5.22865 3.13529 4.856 2.29997C5.81977 1.70119 6.87256 1.25935 7.975 0.990967C8.37536 2.03501 9.37783 2.72424 10.496 2.72424C11.6142 2.72424 12.6166 2.03501 13.017 0.990967C14.1184 1.25623 15.1705 1.69504 16.134 2.29097C15.7614 3.12629 15.837 4.09349 16.3349 4.86076C16.8328 5.62803 17.6853 6.09105 18.6 6.09097C18.979 6.08961 19.3535 6.00958 19.7 5.85597C20.296 6.82153 20.7348 7.87568 21 8.97897ZM6.174 11.495C6.174 13.9112 8.13275 15.87 10.549 15.87V15.869C11.7092 15.8692 12.822 15.4085 13.6425 14.5882C14.463 13.7679 14.924 12.6552 14.924 11.495C14.924 9.07872 12.9652 7.11997 10.549 7.11997C8.13275 7.11997 6.174 9.07872 6.174 11.495Z" fill="#1C2340"/>
</svg>
