<svg width="28" height="19" viewBox="0 0 28 19" fill="none" xmlns="http://www.w3.org/2000/svg">
<path fill-rule="evenodd" clip-rule="evenodd" d="M2.87578 0.67099H16.1348C17.3498 0.67099 18.3348 1.65596 18.3348 2.87099V16.13C18.3348 17.345 17.3498 18.33 16.1348 18.33H2.87578C1.66075 18.33 0.675781 17.345 0.675781 16.13V2.87099C0.675781 1.65596 1.66075 0.67099 2.87578 0.67099ZM19.8048 5.88099L24.8438 2.40499C25.291 2.0934 25.8736 2.05384 26.3588 2.30211C26.8441 2.55038 27.1528 3.046 27.1618 3.59099V15.405C27.1533 15.9499 26.8447 16.4457 26.3596 16.6941C25.8744 16.9424 25.2918 16.9028 24.8448 16.591L19.8048 13.119V5.88099Z" fill="#42B013"/>
</svg>
