<svg width="375" height="287" viewBox="0 0 375 287" fill="none" xmlns="http://www.w3.org/2000/svg">
<path d="M378 252.184H-6V252.338H378V252.184Z" fill="#EBEBEB"/>
<path d="M236.458 257.499H216.874V257.653H236.458V257.499Z" fill="#EBEBEB"/>
<path d="M343.747 261.658H297.437V261.812H343.747V261.658Z" fill="#EBEBEB"/>
<path d="M212.726 257.576H164.88V257.73H212.726V257.576Z" fill="#EBEBEB"/>
<path d="M133.776 263.353H123.792V263.507H133.776V263.353Z" fill="#EBEBEB"/>
<path d="M189.149 263.353H143.53V263.507H189.149V263.353Z" fill="#EBEBEB"/>
<path d="M63.8878 260.041H34.3198V260.195H63.8878V260.041Z" fill="#EBEBEB"/>
<path d="M176.016 217.83H27.715C25.3342 217.83 23.3374 215.828 23.3374 213.44V4.3905C23.3374 2.00268 25.3342 0 27.715 0H176.016C178.397 0 180.393 2.00268 180.393 4.3905V213.44C180.393 215.905 178.473 217.83 176.016 217.83ZM27.715 0.154053C25.411 0.154053 23.491 2.00268 23.491 4.3905V213.44C23.491 215.751 25.3342 217.676 27.715 217.676H176.016C178.32 217.676 180.24 215.828 180.24 213.44V4.3905C180.24 2.07971 178.397 0.154053 176.016 0.154053H27.715Z" fill="#EBEBEB"/>
<path d="M342.134 217.83H193.834C191.453 217.83 189.456 215.828 189.456 213.44V4.3905C189.456 2.00268 191.453 0 193.834 0H342.134C344.515 0 346.512 2.00268 346.512 4.3905V213.44C346.512 215.905 344.592 217.83 342.134 217.83ZM193.834 0.154053C191.53 0.154053 189.61 2.00268 189.61 4.3905V213.44C189.61 215.751 191.453 217.676 193.834 217.676H342.134C344.438 217.676 346.358 215.828 346.358 213.44V4.3905C346.358 2.07971 344.515 0.154053 342.134 0.154053H193.834Z" fill="#EBEBEB"/>
<path d="M144.528 185.402H93.5331L90.3843 149.585H141.379L144.528 185.402Z" fill="#E6E6E6"/>
<path d="M147.139 185.402H96.1443L93.0723 149.585H144.067L147.139 185.402Z" fill="#F0F0F0"/>
<path d="M103.133 177.7L101.443 157.288H137.079L138.768 177.7H103.133Z" fill="white"/>
<path d="M155.971 185.402H149.981V252.184H155.971V185.402Z" fill="#E6E6E6"/>
<path d="M157.815 185.402H153.667V252.184H157.815V185.402Z" fill="#F0F0F0"/>
<path d="M157.814 185.402H99.9072V192.797H157.814V185.402Z" fill="#F0F0F0"/>
<path d="M101.981 192.797H95.9907V252.261H101.981V192.797Z" fill="#E6E6E6"/>
<path d="M103.901 192.797H99.7539V252.261H103.901V192.797Z" fill="#F0F0F0"/>
<path d="M59.4338 192.797H53.4434V252.261H59.4338V192.797Z" fill="#E6E6E6"/>
<path d="M61.2771 192.797H57.1299V252.261H61.2771V192.797Z" fill="#F0F0F0"/>
<path d="M118.109 192.797H112.119V252.261H118.109V192.797Z" fill="#E6E6E6"/>
<path d="M119.952 192.797H115.805V252.261H119.952V192.797Z" fill="#F0F0F0"/>
<path d="M99.9842 185.402H53.4434V192.797H99.9842V185.402Z" fill="#E6E6E6"/>
<path d="M273.398 18.8715H93.4561V119.391H273.398V18.8715Z" fill="#E0E0E0"/>
<path d="M283.305 18.8715H94.3774V119.391H283.305V18.8715Z" fill="#F5F5F5"/>
<path d="M280.234 21.9525H97.4497V116.233H280.234V21.9525Z" fill="white"/>
<path d="M171.485 116.233L205.968 21.9525H148.982L114.499 116.233H171.485Z" fill="#F5F5F5"/>
<path d="M226.243 116.233L260.803 21.9525H217.795L183.312 116.233H226.243Z" fill="#F5F5F5"/>
<path d="M330.461 156.286H315.178V252.261H330.461V156.286Z" fill="#E6E6E6"/>
<path d="M326.467 252.184H330.461V244.867H322.243L326.467 252.184Z" fill="#FAFAFA"/>
<path d="M189.379 156.286H174.096V252.261H189.379V156.286Z" fill="#E6E6E6"/>
<path d="M330.461 156.286H185.923V250.258H330.461V156.286Z" fill="#FAFAFA"/>
<path d="M327.696 186.558H188.611V159.984H327.696V186.558ZM189.379 185.787H326.928V160.754H189.379V185.787Z" fill="#E6E6E6"/>
<path d="M303.274 172.924H215.799C211.728 172.924 207.812 169.612 205.047 163.912L204.816 163.373H314.256L314.026 163.912C311.184 169.612 307.344 172.924 303.274 172.924ZM206.045 164.143C208.656 169.227 212.189 172.154 215.799 172.154H303.197C306.807 172.154 310.34 169.227 312.951 164.143H206.045Z" fill="#E6E6E6"/>
<path d="M189.917 252.184H185.923V244.867H194.141L189.917 252.184Z" fill="#FAFAFA"/>
<path d="M327.696 216.521H188.611V189.947H327.696V216.521ZM189.379 215.751H326.928V190.717H189.379V215.751Z" fill="#E6E6E6"/>
<path d="M303.274 202.887H215.799C211.728 202.887 207.812 199.575 205.047 193.875L204.816 193.336H314.256L314.026 193.875C311.184 199.575 307.344 202.887 303.274 202.887ZM206.045 194.029C208.656 199.113 212.189 202.04 215.799 202.04H303.197C306.807 202.04 310.34 199.113 312.951 194.029H206.045Z" fill="#E6E6E6"/>
<path d="M327.696 246.407H188.611V219.833H327.696V246.407ZM189.379 245.637H326.928V220.603H189.379V245.637Z" fill="#E6E6E6"/>
<path d="M303.274 232.773H215.799C211.728 232.773 207.812 229.461 205.047 223.761L204.816 223.222H314.256L314.026 223.761C311.184 229.538 307.344 232.773 303.274 232.773ZM206.045 223.992C208.656 229.076 212.189 232.003 215.799 232.003H303.197C306.807 232.003 310.34 229.076 312.951 223.992H206.045Z" fill="#E6E6E6"/>
<path d="M86.9283 168.919V170.767H85.6995L84.7779 185.402H70.2627L69.2643 170.767H68.1123V168.919H86.9283Z" fill="#E6E6E6"/>
<path d="M82.1665 132.716C81.0145 124.012 69.2641 121.548 54.4417 121.239C40.3105 120.931 35.7793 115.925 35.7793 115.925C35.7793 115.925 35.8561 136.26 56.2081 143.577C75.4849 150.509 83.3185 141.42 82.1665 132.716Z" fill="#E6E6E6"/>
<path d="M74.9475 152.435C75.1779 148.892 80.8611 142.268 94.6083 145.272C104.516 147.428 108.202 142.268 108.202 142.268C108.202 142.268 107.28 156.826 92.3811 161.216C78.1731 165.298 74.4867 158.674 74.9475 152.435Z" fill="#E6E6E6"/>
<path d="M78.0962 174.465C78.2498 174.465 78.4034 174.388 78.4802 174.311C79.4786 173.155 78.6338 170.305 77.5586 166.377C76.0994 161.37 74.333 155.131 75.869 150.586C76.7138 148.045 77.789 145.811 78.7874 143.577C80.9378 139.032 82.781 135.104 81.245 130.945C81.1682 130.637 80.861 130.56 80.5538 130.637C80.2466 130.714 80.1698 131.022 80.2466 131.33C81.629 135.027 79.9394 138.57 77.789 143.115C76.7906 145.195 75.6386 147.582 74.7938 150.201C73.181 155.054 75.0242 161.447 76.4834 166.608C77.3282 169.612 78.2498 172.77 77.6354 173.54C77.4818 173.771 77.4818 174.079 77.7122 174.311C77.789 174.388 77.9426 174.465 78.0962 174.465Z" fill="#E6E6E6"/>
<path d="M186 287C268.244 287 334.915 283.103 334.915 278.296C334.915 273.489 268.244 269.592 186 269.592C103.757 269.592 37.085 273.489 37.085 278.296C37.085 283.103 103.757 287 186 287Z" fill="#F5F5F5"/>
<path d="M186 235.778H76.944L70.9536 59.8494H180.01L186 235.778Z" fill="#407BFF"/>
<path d="M191.376 230.309H82.3198L76.4062 54.3806H185.462L191.376 230.309Z" fill="#407BFF"/>
<path opacity="0.3" d="M191.376 230.309H82.3198L76.4062 54.3806H185.462L191.376 230.309Z" fill="white"/>
<path d="M163.267 104.833C163.882 121.856 150.595 135.566 133.623 135.566C116.65 135.566 102.442 121.779 101.904 104.833C101.29 87.81 114.576 74.0993 131.549 74.0993C148.522 74.0993 162.73 87.887 163.267 104.833Z" fill="#407BFF"/>
<path d="M157.968 104.833C158.122 109.223 157.123 113.306 155.357 116.926C151.363 124.86 143.146 130.251 133.546 130.251C123.946 130.251 115.344 124.86 110.813 116.926C108.739 113.306 107.51 109.223 107.357 104.833C106.896 90.814 117.802 79.4141 131.779 79.4141C145.757 79.4911 157.43 90.814 157.968 104.833Z" fill="white"/>
<path opacity="0.6" d="M155.28 116.926C151.287 124.86 143.069 130.251 133.469 130.251C123.869 130.251 115.268 124.86 110.736 116.926C116.957 112.689 124.56 110.148 132.778 110.148C141.072 110.225 148.752 112.689 155.28 116.926Z" fill="#407BFF"/>
<path opacity="0.6" d="M143.607 96.2059C143.837 102.445 138.922 107.529 132.701 107.529C126.48 107.529 121.258 102.445 121.027 96.2059C120.797 89.9667 125.712 84.883 131.933 84.883C138.154 84.883 143.376 89.8897 143.607 96.2059Z" fill="#407BFF"/>
<path d="M169.488 166.608H99.9071L99.4463 152.743H169.027L169.488 166.608Z" fill="white"/>
<path d="M170.333 191.41H100.752L100.291 177.546H169.872L170.333 191.41Z" fill="white"/>
<path d="M143.53 179.471L126.787 181.782C126.096 181.859 125.635 182.475 125.789 183.169L128.016 194.414C128.17 195.108 128.784 195.57 129.475 195.493L146.218 193.182C146.909 193.105 147.37 192.489 147.216 191.795L144.989 180.55C144.835 179.856 144.221 179.317 143.53 179.471ZM138.691 190.871L135.619 191.256L135.312 187.636C134.698 187.328 134.16 186.789 134.083 186.096C133.853 185.017 134.621 183.939 135.773 183.785C136.925 183.631 138 184.401 138.23 185.479C138.384 186.173 138.154 186.789 137.616 187.251L138.691 190.871Z" fill="#407BFF"/>
<path d="M141.84 178.855C141.226 178.932 140.611 178.547 140.535 177.931L140.304 176.852C139.69 173.848 136.848 171.538 133.699 171.769C130.32 172.077 128.093 175.004 128.707 178.239L128.938 179.471C129.091 180.088 128.631 180.627 128.016 180.704C127.402 180.781 126.787 180.396 126.711 179.779L126.48 178.701C125.635 174.465 128.323 170.382 132.624 169.689C137.155 168.919 141.61 171.923 142.455 176.39L142.685 177.623C142.839 178.162 142.455 178.778 141.84 178.855Z" fill="#407BFF"/>
<path d="M158.89 210.821H113.578L113.271 201.809H158.583L158.89 210.821Z" fill="#407BFF"/>
<path d="M137.002 159.676C137.078 161.062 135.926 162.217 134.544 162.217C133.162 162.217 132.01 161.062 131.933 159.676C131.856 158.289 133.008 157.134 134.39 157.134C135.773 157.134 137.002 158.289 137.002 159.676Z" fill="#263238"/>
<path d="M126.096 159.676C126.173 161.062 125.021 162.217 123.638 162.217C122.256 162.217 121.104 161.062 121.027 159.676C120.95 158.289 122.102 157.134 123.485 157.134C124.867 157.134 126.096 158.289 126.096 159.676Z" fill="#263238"/>
<path d="M115.267 159.676C115.344 161.062 114.192 162.217 112.81 162.217C111.427 162.217 110.275 161.062 110.198 159.676C110.122 158.289 111.274 157.134 112.656 157.134C114.038 157.134 115.19 158.289 115.267 159.676Z" fill="#263238"/>
<path d="M147.907 159.676C147.984 161.062 146.832 162.217 145.45 162.217C144.067 162.217 142.915 161.062 142.839 159.676C142.762 158.289 143.914 157.134 145.296 157.134C146.679 157.134 147.831 158.289 147.907 159.676Z" fill="#263238"/>
<path d="M158.813 159.676C158.889 161.062 157.737 162.217 156.355 162.217C154.973 162.217 153.821 161.062 153.744 159.676C153.667 158.289 154.819 157.134 156.201 157.134C157.584 157.134 158.736 158.289 158.813 159.676Z" fill="#263238"/>
<path d="M250.435 91.8924C251.434 93.5099 252.278 95.1275 253.2 96.745C254.045 98.3626 254.89 100.057 255.658 101.752C257.194 105.141 258.576 108.607 259.574 112.304C259.728 112.766 259.805 113.229 259.958 113.691L260.112 114.384L260.189 114.769L260.266 115.385C260.496 116.926 260.266 118.235 260.035 119.391C259.498 121.625 258.576 123.396 257.654 125.168C255.734 128.557 253.43 131.407 250.819 134.18L247.594 131.715C249.206 128.711 250.742 125.476 251.894 122.472C252.432 120.931 252.893 119.391 253.046 118.158C253.123 117.542 253.046 117.003 252.97 116.772L252.662 115.848C252.509 115.462 252.432 115.077 252.278 114.692C251.203 111.611 249.744 108.453 248.208 105.372C246.672 102.291 245.059 99.2099 243.37 96.2829L250.435 91.8924Z" fill="#FF8B7B"/>
<path d="M248.362 130.56L244.829 132.408L248.899 137.184C248.899 137.184 251.434 135.489 251.511 132.87L248.362 130.56Z" fill="#FF8B7B"/>
<path d="M240.144 135.335L244.445 138.801L248.899 137.184L244.829 132.408L240.144 135.335Z" fill="#FF8B7B"/>
<path d="M224.636 67.3874C224.927 67.4467 225.232 67.1568 225.316 66.7399C225.401 66.323 225.233 65.937 224.942 65.8777C224.651 65.8183 224.347 66.1082 224.263 66.5251C224.178 66.942 224.345 67.3281 224.636 67.3874Z" fill="#263238"/>
<path d="M224.938 67.475C224.938 67.475 223.478 69.7858 222.173 70.7101C222.787 71.5574 224.17 71.4804 224.17 71.4804L224.938 67.475Z" fill="#FF5652"/>
<path d="M223.555 82.5722V77.4884L230.237 78.2587C230.237 78.2587 230.16 82.5722 226.397 83.8816L223.555 82.5722Z" fill="#FF8B7B"/>
<path d="M225.475 73.8682L230.16 75.2547L230.237 78.3357L223.555 77.4885L225.475 73.8682Z" fill="#FF8B7B"/>
<path opacity="0.2" d="M230.16 75.2547L225.475 73.8682L224.554 75.6398C224.631 78.6438 226.474 81.0317 228.855 82.1871C230.16 80.4925 230.237 78.3357 230.237 78.3357L230.16 75.2547Z" fill="black"/>
<path d="M227.318 64.6251C227.395 64.6251 227.472 64.6251 227.472 64.548C227.549 64.471 227.549 64.317 227.472 64.1629C226.474 63.0845 225.322 63.3156 225.322 63.3156C225.168 63.3156 225.091 63.4697 225.091 63.6237C225.091 63.7778 225.245 63.8548 225.399 63.8548C225.399 63.8548 226.32 63.7007 227.088 64.548C227.165 64.6251 227.242 64.6251 227.318 64.6251Z" fill="#263238"/>
<path d="M237.149 74.4844C236.381 78.4127 235.92 83.9586 238.685 86.5775C238.685 86.5775 237.61 90.5829 230.237 90.5829C222.173 90.5829 226.32 87.0397 226.32 87.0397C229.699 85.9613 229.623 82.187 228.855 79.106L237.149 74.4844Z" fill="#FF8B7B"/>
<path d="M240.144 89.2735C240.835 88.2721 240.835 85.037 240.067 84.4208C238.839 83.4965 233.539 83.2654 226.397 84.96C227.165 88.1181 225.552 89.7356 225.552 89.7356L240.144 89.2735Z" fill="#407BFF"/>
<path d="M264.182 272.134C263.645 272.288 263.107 272.288 262.8 272.057C262.723 271.98 262.57 271.749 262.646 271.441C262.723 271.287 262.8 271.133 262.954 271.056C263.645 270.67 265.334 271.364 265.411 271.441C265.488 271.441 265.488 271.518 265.488 271.518C265.488 271.595 265.488 271.595 265.411 271.672C265.258 271.826 264.72 271.98 264.182 272.134ZM263.338 271.287C263.261 271.287 263.261 271.287 263.184 271.364C263.107 271.441 263.03 271.518 262.954 271.595C262.877 271.826 262.954 271.903 263.03 271.903C263.338 272.134 264.413 271.903 265.181 271.595C264.643 271.364 263.798 271.133 263.338 271.287Z" fill="#407BFF"/>
<path d="M265.488 271.672C264.797 271.518 263.491 270.593 263.491 269.977C263.491 269.9 263.491 269.669 263.798 269.592C263.952 269.515 264.182 269.515 264.336 269.669C265.027 270.054 265.488 271.518 265.565 271.595C265.642 271.595 265.565 271.595 265.488 271.672C265.565 271.672 265.488 271.672 265.488 271.672ZM263.952 269.746C263.722 269.823 263.722 269.9 263.722 269.9C263.722 270.285 264.566 270.979 265.258 271.287C265.104 270.824 264.72 269.977 264.259 269.746C264.182 269.746 264.106 269.746 263.952 269.746Z" fill="#407BFF"/>
<path d="M224.324 273.058C223.632 273.058 222.941 272.981 222.711 272.673C222.634 272.596 222.557 272.365 222.711 272.134C222.788 271.98 222.941 271.903 223.095 271.826C224.016 271.595 225.86 272.673 225.936 272.673C226.013 272.673 226.013 272.75 226.013 272.827C226.013 272.904 225.936 272.904 225.936 272.904C225.629 272.981 224.938 273.058 224.324 273.058ZM223.402 271.98C223.325 271.98 223.248 271.98 223.172 271.98C223.018 271.98 222.941 272.057 222.941 272.134C222.864 272.288 222.864 272.365 222.941 272.442C223.172 272.827 224.554 272.827 225.552 272.673C225.015 272.442 224.093 271.98 223.402 271.98Z" fill="#407BFF"/>
<path d="M225.936 272.904C225.936 272.904 225.859 272.904 225.936 272.904C225.245 272.596 223.939 271.441 224.016 270.824C224.016 270.67 224.17 270.516 224.477 270.439C224.707 270.439 225.014 270.516 225.168 270.67C225.859 271.21 226.013 272.673 226.013 272.75C226.09 272.75 226.013 272.827 225.936 272.904C226.013 272.904 225.936 272.904 225.936 272.904ZM224.63 270.67H224.554C224.323 270.67 224.323 270.747 224.323 270.824C224.246 271.21 225.168 272.134 225.782 272.519C225.706 272.057 225.552 271.21 225.091 270.824C224.938 270.747 224.784 270.67 224.63 270.67Z" fill="#407BFF"/>
<path d="M231.85 272.75H226.474L225.936 260.195H231.312L231.85 272.75Z" fill="#FF8B7B"/>
<path d="M271.479 270.208L266.256 271.364L260.957 259.733L266.179 258.577L271.479 270.208Z" fill="#FF8B7B"/>
<path d="M265.719 270.824L271.632 269.515C271.863 269.438 272.093 269.592 272.17 269.746L274.243 274.214C274.474 274.676 274.167 275.215 273.706 275.292C271.632 275.677 270.557 275.831 268.023 276.37C266.41 276.755 262.8 277.603 260.573 278.065C258.423 278.527 257.578 276.447 258.423 275.985C262.263 274.214 263.952 272.673 264.951 271.21C265.104 271.133 265.411 270.902 265.719 270.824Z" fill="#263238"/>
<path d="M226.474 272.134H232.387C232.618 272.134 232.771 272.288 232.848 272.519L233.923 277.372C234 277.834 233.693 278.373 233.155 278.373C231.005 278.373 227.933 278.219 225.245 278.219C222.096 278.219 219.408 278.373 215.722 278.373C213.495 278.373 212.88 276.139 213.802 275.908C218.026 274.984 221.482 274.907 225.168 272.596C225.629 272.288 226.013 272.134 226.474 272.134Z" fill="#263238"/>
<path d="M248.362 87.81C253.431 88.9654 257.578 101.906 257.578 101.906L247.44 109.762C247.44 109.762 243.677 106.219 242.064 99.7491C240.298 92.8937 243.139 86.6546 248.362 87.81Z" fill="#407BFF"/>
<path opacity="0.4" d="M248.362 87.81C253.431 88.9654 257.578 101.906 257.578 101.906L247.44 109.762C247.44 109.762 243.677 106.219 242.064 99.7491C240.298 92.8937 243.139 86.6546 248.362 87.81Z" fill="black"/>
<path d="M221.712 103.292C220.483 104.679 219.178 105.911 217.872 107.144C217.258 107.76 216.567 108.376 215.875 108.992L214.877 109.917L214.647 110.148C214.493 110.225 214.339 110.379 214.186 110.533C213.879 110.764 213.495 111.072 212.727 111.38C212.343 111.534 211.805 111.765 210.883 111.765C210.423 111.765 209.808 111.688 209.271 111.457C208.656 111.226 208.119 110.841 207.735 110.456C206.967 109.608 206.659 108.915 206.506 108.453C206.352 107.991 206.352 107.606 206.275 107.298C206.199 106.681 206.275 106.296 206.275 105.911C206.275 105.526 206.352 105.218 206.429 104.91C206.659 103.754 206.967 102.753 207.351 101.829C207.735 100.904 208.119 99.9801 208.579 99.0558C209.04 98.0545 209.501 97.3612 210.039 96.5139C211.959 93.3559 214.186 90.4289 216.567 87.6559C218.947 84.96 221.559 82.4181 224.477 80.1844L227.319 83.1114C225.322 85.8073 223.402 88.6573 221.559 91.4302C219.792 94.2802 218.103 97.1301 216.643 100.057C216.336 100.75 215.875 101.598 215.645 102.214C215.338 102.907 215.107 103.6 214.954 104.294C214.723 104.987 214.57 105.68 214.493 106.219C214.493 106.373 214.493 106.45 214.493 106.527C214.493 106.604 214.493 106.604 214.493 106.45C214.493 106.373 214.493 106.219 214.416 105.911C214.339 105.68 214.186 105.141 213.495 104.448C213.187 104.14 212.727 103.831 212.266 103.677C211.805 103.523 211.267 103.446 210.96 103.446C210.269 103.446 209.962 103.6 209.731 103.677C209.347 103.831 209.347 103.908 209.347 103.831L209.655 103.6L210.576 102.753L212.419 101.058C213.648 99.9031 214.877 98.6707 216.029 97.5153L221.712 103.292Z" fill="#FF8B7B"/>
<path opacity="0.2" d="M243.984 97.3612C246.749 100.057 247.594 105.064 247.824 109.377L247.363 109.762C247.363 109.762 243.6 106.219 241.987 99.749C241.91 99.3639 241.834 98.9018 241.757 98.5166L243.984 97.3612Z" fill="black"/>
<path d="M216.336 93.2788C215.261 99.1328 214.57 111.149 217.719 134.95H246.672C246.903 130.483 244.061 108.838 248.362 87.81C248.362 87.81 243.447 86.8086 238.685 86.5775C234.999 86.4235 229.623 86.2694 226.397 86.5775C225.015 86.7316 223.709 86.8856 222.557 87.1167C219.408 87.6559 216.951 90.1208 216.336 93.2788Z" fill="#407BFF"/>
<path opacity="0.4" d="M216.336 93.2788C215.261 99.1328 214.57 111.149 217.719 134.95H246.672C246.903 130.483 244.061 108.838 248.362 87.81C248.362 87.81 243.447 86.8086 238.685 86.5775C234.999 86.4235 229.623 86.2694 226.397 86.5775C225.015 86.7316 223.709 86.8856 222.557 87.1167C219.408 87.6559 216.951 90.1208 216.336 93.2788Z" fill="black"/>
<path opacity="0.2" d="M220.79 101.906L215.568 100.673C215.414 103.831 215.414 107.76 215.645 112.612C218.026 109.917 221.098 105.603 220.79 101.906Z" fill="black"/>
<path opacity="0.2" d="M225.936 260.195L226.243 266.665H231.619L231.312 260.195H225.936Z" fill="black"/>
<path opacity="0.2" d="M266.256 258.577L260.957 259.733L263.645 265.741L268.944 264.585L266.256 258.577Z" fill="black"/>
<path d="M239.684 68.7074C238.301 73.8682 237.764 77.0263 234.538 79.183C229.7 82.4181 223.709 78.7209 223.556 73.175C223.402 68.2453 225.706 60.5427 231.236 59.5413C236.765 58.4629 241.066 63.5467 239.684 68.7074Z" fill="#FF8B7B"/>
<path d="M227.549 68.9385C227.319 68.2453 226.09 62.8535 227.242 61.467C228.394 60.0805 241.143 61.0818 243.063 62.9305C246.212 66.0115 244.061 68.7845 240.605 72.3277C237.994 75.0236 237.917 78.0276 236.612 78.4898C234.308 79.2601 230.775 78.5668 230.084 76.102C229.392 73.6371 227.549 68.9385 227.549 68.9385Z" fill="#263238"/>
<path d="M241.527 56.8454C236.996 54.9197 228.548 57.0765 223.94 55.9211C223.786 58.3089 225.168 62.0832 229.776 63.1616C229.776 63.1616 236.304 64.394 241.296 64.2399C246.288 64.0088 245.367 58.463 241.527 56.8454Z" fill="#263238"/>
<path d="M242.218 63.0845C242.218 63.0845 244.983 63.3926 246.979 62.1602C247.824 64.2399 243.216 64.7791 242.218 63.0845Z" fill="#263238"/>
<path d="M230.083 69.0926C230.006 70.4791 229.315 71.7885 228.547 72.7128C227.395 74.0223 226.166 73.175 225.936 71.6344C225.782 70.1709 226.166 67.7831 227.549 67.0899C229.008 66.3967 230.16 67.552 230.083 69.0926Z" fill="#FF8B7B"/>
<path d="M228.01 134.95C228.01 134.95 234.154 176.39 237.533 191.873C241.219 208.895 260.957 265.048 260.957 265.048L270.634 262.968C270.634 262.968 256.81 217.137 253.738 193.413C251.357 175.158 246.672 134.95 246.672 134.95H228.01Z" fill="#407BFF"/>
<path d="M258.653 261.812C258.576 261.812 260.419 265.356 260.419 265.356L271.325 262.968L270.403 259.656L258.653 261.812Z" fill="#263238"/>
<path opacity="0.3" d="M231.85 149.662C238.915 151.049 238.224 177.546 237.302 191.179C235.229 181.551 232.234 162.988 230.237 149.816C230.774 149.662 231.312 149.585 231.85 149.662Z" fill="black"/>
<path d="M217.718 134.95C217.718 134.95 216.95 175.466 217.565 191.95C218.179 209.126 224.17 265.433 224.17 265.433H233.309C233.309 265.433 233.616 210.205 234.077 193.259C234.538 174.85 236.765 134.95 236.765 134.95H217.718Z" fill="#407BFF"/>
<path d="M222.403 261.735C222.326 261.735 222.941 265.51 222.941 265.51H234.077L234.384 262.12L222.403 261.735Z" fill="#263238"/>
<path d="M227.702 95.0504C230.314 102.06 215.107 110.302 215.107 110.302L208.502 101.829C208.502 101.829 212.88 93.0478 218.256 89.1194C224.938 84.1897 225.706 89.7356 227.702 95.0504Z" fill="#407BFF"/>
<path opacity="0.4" d="M227.702 95.0504C230.314 102.06 215.107 110.302 215.107 110.302L208.502 101.829C208.502 101.829 212.88 93.0478 218.256 89.1194C224.938 84.1897 225.706 89.7356 227.702 95.0504Z" fill="black"/>
<path d="M287.299 41.9023C302.611 41.9023 315.024 33.9706 315.024 24.1863C315.024 14.402 302.611 6.47021 287.299 6.47021C271.987 6.47021 259.574 14.402 259.574 24.1863C259.574 33.9706 271.987 41.9023 287.299 41.9023Z" fill="#407BFF"/>
<path d="M277.238 33.1213C275.702 33.1213 274.166 32.6592 272.861 31.7348C271.094 30.5024 269.942 28.7308 269.558 26.6511C268.867 22.6457 271.555 18.6404 275.472 17.7161C278.697 16.9458 282 18.3323 283.766 21.1822L301.584 17.485C303.043 17.1769 304.502 18.0242 304.809 19.4106C304.963 20.1039 304.886 20.8741 304.502 21.4903C304.118 22.1066 303.504 22.5687 302.736 22.7228L302.275 22.7998C302.121 22.7998 302.045 22.8768 301.968 23.0309C301.891 23.1849 301.891 23.262 301.968 23.416L302.275 24.2633C302.505 24.8025 302.275 25.4187 301.814 25.7268C301.43 25.9579 301.2 26.343 301.123 26.8052C301.046 27.3443 300.662 27.8065 300.201 27.8835L299.817 27.9606C299.357 28.0376 298.819 27.8065 298.512 27.3443C298.205 26.8052 297.59 26.4971 296.899 26.6511C296.285 26.8052 295.824 27.2673 295.747 27.9606C295.67 28.4997 295.286 28.9619 294.825 29.0389L294.441 29.1159C293.981 29.193 293.443 28.9619 293.136 28.4997C292.905 28.1146 292.521 27.8065 292.061 27.8065C291.523 27.7295 291.062 27.1903 291.062 26.6511V25.8038C291.062 25.6498 290.985 25.5727 290.909 25.4187C290.832 25.3417 290.678 25.2646 290.525 25.3417L284.841 26.4971C284.381 29.7322 281.923 32.274 278.697 32.9673C278.313 33.0443 277.776 33.1213 277.238 33.1213ZM275.702 18.4863C272.169 19.3336 269.712 22.8768 270.403 26.4971C270.71 28.4227 271.785 30.0403 273.321 31.1186C274.934 32.197 276.777 32.5821 278.697 32.197C281.693 31.5808 283.92 29.116 284.227 26.1119V25.8038L290.448 24.4944C290.832 24.4173 291.216 24.4944 291.446 24.7254C291.753 24.9565 291.907 25.2646 291.907 25.6498V26.4971C291.907 26.7281 292.061 26.8822 292.291 26.9592C292.982 27.0362 293.597 27.4984 293.904 28.0376C293.981 28.1916 294.134 28.3457 294.365 28.2687L294.749 28.1916C294.979 28.1146 295.056 27.9606 295.056 27.8065C295.133 26.8052 295.901 26.0349 296.822 25.8808C297.744 25.6498 298.742 26.1119 299.203 26.9592C299.28 27.1133 299.433 27.2673 299.664 27.1903L300.048 27.1133C300.278 27.0362 300.355 26.8822 300.355 26.7281C300.432 26.0349 300.816 25.4187 301.43 25.1106C301.584 25.0336 301.661 24.8025 301.584 24.5714L301.277 23.7241C301.123 23.416 301.2 23.0309 301.353 22.6457C301.507 22.3376 301.814 22.1066 302.198 22.0295L302.659 21.9525C303.197 21.8755 303.581 21.5674 303.888 21.1052C304.195 20.6431 304.272 20.1039 304.118 19.6417C303.888 18.6404 302.813 18.0242 301.737 18.2552L283.382 22.0295L283.229 21.7985C281.846 19.1025 278.774 17.7931 275.702 18.4863ZM277.315 30.2713C276.393 30.2713 275.472 29.9632 274.627 29.4241C273.552 28.7308 272.784 27.5754 272.477 26.266C272.246 24.9565 272.477 23.6471 273.168 22.5687C273.859 21.4903 275.011 20.7201 276.317 20.489C277.622 20.2579 278.928 20.489 280.003 21.1822C281.078 21.8755 281.846 23.0309 282.077 24.3403C282.307 25.6498 282.077 26.9592 281.385 28.0376C280.694 29.116 279.542 29.8862 278.237 30.1943C277.929 30.1943 277.622 30.2713 277.315 30.2713ZM277.315 21.1052C277.008 21.1052 276.777 21.1052 276.47 21.1822C275.395 21.4133 274.473 22.0295 273.859 22.9538C273.245 23.8782 273.014 24.9565 273.245 26.1119C273.475 27.1903 274.089 28.1146 275.011 28.7308C275.933 29.347 277.008 29.5781 278.16 29.347C279.235 29.1159 280.157 28.4997 280.771 27.5754C281.385 26.6511 281.616 25.5727 281.385 24.4173C281.155 23.339 280.541 22.4147 279.619 21.7985C278.928 21.4133 278.083 21.1052 277.315 21.1052Z" fill="white"/>
<path opacity="0.6" d="M264.72 52.3009C269.767 52.3009 273.859 49.6799 273.859 46.4469C273.859 43.2138 269.767 40.5929 264.72 40.5929C259.672 40.5929 255.581 43.2138 255.581 46.4469C255.581 49.6799 259.672 52.3009 264.72 52.3009Z" fill="#407BFF"/>
<path opacity="0.3" d="M250.205 54.6887C252.283 54.6887 253.968 53.6196 253.968 52.3009C253.968 50.9821 252.283 49.9131 250.205 49.9131C248.126 49.9131 246.441 50.9821 246.441 52.3009C246.441 53.6196 248.126 54.6887 250.205 54.6887Z" fill="#407BFF"/>
</svg>
