<svg width="375" height="295" viewBox="0 0 375 295" fill="none" xmlns="http://www.w3.org/2000/svg">
<path d="M396 259.214H0V259.372H396V259.214Z" fill="#EBEBEB"/>
<path d="M356.321 271.961H330.105V272.119H356.321V271.961Z" fill="#EBEBEB"/>
<path d="M262.31 274.177H255.42V274.336H262.31V274.177Z" fill="#EBEBEB"/>
<path d="M329.314 264.677H314.107V264.835H329.314V264.677Z" fill="#EBEBEB"/>
<path d="M75.7945 265.943H41.5801V266.102H75.7945V265.943Z" fill="#EBEBEB"/>
<path d="M87.8329 265.943H82.8433V266.102H87.8329V265.943Z" fill="#EBEBEB"/>
<path d="M178.358 269.348H104.148V269.506H178.358V269.348Z" fill="#EBEBEB"/>
<path d="M187.704 223.902H34.7688C32.3136 223.902 30.2544 221.844 30.2544 219.389V4.51288C30.2544 2.05851 32.3136 0 34.7688 0H187.704C190.159 0 192.218 2.05851 192.218 4.51288V219.389C192.218 221.923 190.238 223.902 187.704 223.902ZM34.7688 0.158347C32.3928 0.158347 30.4128 2.05851 30.4128 4.51288V219.389C30.4128 221.765 32.3136 223.744 34.7688 223.744H187.704C190.08 223.744 192.06 221.844 192.06 219.389V4.51288C192.06 2.13768 190.159 0.158347 187.704 0.158347H34.7688Z" fill="#EBEBEB"/>
<path d="M359.014 223.902H206.078C203.623 223.902 201.564 221.844 201.564 219.389V4.51288C201.564 2.05851 203.623 0 206.078 0H359.014C361.469 0 363.528 2.05851 363.528 4.51288V219.389C363.528 221.923 361.548 223.902 359.014 223.902ZM206.078 0.158347C203.702 0.158347 201.722 2.05851 201.722 4.51288V219.389C201.722 221.765 203.623 223.744 206.078 223.744H359.014C361.39 223.744 363.37 221.844 363.37 219.389V4.51288C363.37 2.13768 361.469 0.158347 359.014 0.158347H206.078Z" fill="#EBEBEB"/>
<path d="M176.299 101.975H52.3511V258.897H176.299V101.975Z" fill="#F0F0F0"/>
<path d="M172.022 107.676H56.7861V141.245H172.022V107.676Z" fill="#E0E0E0"/>
<path d="M63.3597 113.139H56.7861V141.245H63.3597V113.139Z" fill="#EBEBEB"/>
<path d="M94.9603 113.139H88.3867V141.245H94.9603V113.139Z" fill="#EBEBEB"/>
<path d="M130.931 112.392L124.453 113.508L129.227 141.207L135.705 140.091L130.931 112.392Z" fill="#EBEBEB"/>
<path d="M71.4383 116.781H64.8647V141.166H71.4383V116.781Z" fill="#EBEBEB"/>
<path d="M86.4862 116.781H79.9126V141.166H86.4862V116.781Z" fill="#EBEBEB"/>
<path d="M124.502 116.781H117.929V141.166H124.502V116.781Z" fill="#EBEBEB"/>
<path d="M103.555 115.968L97.1382 117.394L102.429 141.199L108.846 139.773L103.555 115.968Z" fill="#EBEBEB"/>
<path d="M77.0612 111.714H73.814V141.245H77.0612V111.714Z" fill="#EBEBEB"/>
<path d="M115.948 111.714H112.701V141.245H115.948V111.714Z" fill="#EBEBEB"/>
<path d="M172.022 146.55H56.7861V180.119H172.022V146.55Z" fill="#E0E0E0"/>
<path d="M172.022 152.013H165.449V180.119H172.022V152.013Z" fill="#EBEBEB"/>
<path d="M140.342 152.013H133.769V180.119H140.342V152.013Z" fill="#EBEBEB"/>
<path d="M93.0349 179.008L99.5132 180.123L104.287 152.424L97.809 151.309L93.0349 179.008Z" fill="#EBEBEB"/>
<path d="M163.865 155.655H157.291V180.04H163.865V155.655Z" fill="#EBEBEB"/>
<path d="M148.896 155.655H142.322V180.04H148.896V155.655Z" fill="#EBEBEB"/>
<path d="M110.88 155.655H104.306V180.04H110.88V155.655Z" fill="#EBEBEB"/>
<path d="M119.883 178.702L126.3 180.127L131.591 156.322L125.174 154.897L119.883 178.702Z" fill="#EBEBEB"/>
<path d="M154.915 150.588H151.668V180.119H154.915V150.588Z" fill="#EBEBEB"/>
<path d="M115.948 150.588H112.701V180.119H115.948V150.588Z" fill="#EBEBEB"/>
<path d="M63.3597 152.013H56.7861V180.119H63.3597V152.013Z" fill="#EBEBEB"/>
<path d="M71.4383 155.655H64.8647V180.04H71.4383V155.655Z" fill="#EBEBEB"/>
<path d="M86.4862 155.655H79.9126V180.04H86.4862V155.655Z" fill="#EBEBEB"/>
<path d="M77.0612 150.588H73.814V180.119H77.0612V150.588Z" fill="#EBEBEB"/>
<path d="M172.022 185.424H56.7861V218.994H172.022V185.424Z" fill="#E0E0E0"/>
<path d="M129.492 190.887H122.918V218.994H129.492V190.887Z" fill="#EBEBEB"/>
<path d="M165.383 190.148L158.904 191.264L163.678 218.963L170.157 217.847L165.383 190.148Z" fill="#EBEBEB"/>
<path d="M105.97 194.529H99.396V218.914H105.97V194.529Z" fill="#EBEBEB"/>
<path d="M120.938 194.529H114.365V218.914H120.938V194.529Z" fill="#EBEBEB"/>
<path d="M158.954 194.529H152.381V218.914H158.954V194.529Z" fill="#EBEBEB"/>
<path d="M138.086 193.706L131.668 195.132L136.959 218.937L143.377 217.511L138.086 193.706Z" fill="#EBEBEB"/>
<path d="M111.513 189.462H108.266V218.994H111.513V189.462Z" fill="#EBEBEB"/>
<path d="M150.48 189.462H147.232V218.994H150.48V189.462Z" fill="#EBEBEB"/>
<path d="M90.0613 190.15L83.583 191.266L88.3571 218.965L94.8354 217.849L90.0613 190.15Z" fill="#EBEBEB"/>
<path d="M83.6351 194.529H77.0615V218.914H83.6351V194.529Z" fill="#EBEBEB"/>
<path d="M62.7658 193.711L56.3486 195.136L61.6396 218.941L68.0567 217.516L62.7658 193.711Z" fill="#EBEBEB"/>
<path d="M75.1608 189.462H71.9136V218.994H75.1608V189.462Z" fill="#EBEBEB"/>
<path d="M241.797 165.235H311.652C319.255 165.235 325.353 171.41 325.353 178.932V233.482H228.096V178.932C228.096 171.331 234.194 165.235 241.797 165.235Z" fill="#E6E6E6"/>
<path d="M207.425 205.613H219.938C224.453 205.613 228.096 209.255 228.096 213.768V258.897H199.267V213.768C199.267 209.255 202.91 205.613 207.425 205.613Z" fill="#E0E0E0"/>
<path d="M207.425 205.613H207.662C212.177 205.613 215.82 209.255 215.82 213.768V258.897H199.267V213.768C199.267 209.255 202.91 205.613 207.425 205.613Z" fill="#EBEBEB"/>
<path d="M315.216 238.154H219.305V258.897H315.216V238.154Z" fill="#E6E6E6"/>
<path d="M219.146 219.231H311.652C316.245 219.231 319.968 222.952 319.968 227.544V232.691C319.968 237.283 316.245 241.004 311.652 241.004H219.146C214.552 241.004 210.83 237.283 210.83 232.691V227.544C210.909 222.952 214.632 219.231 219.146 219.231Z" fill="#F5F5F5"/>
<path d="M300.009 219.231H311.493C316.087 219.231 319.809 222.952 319.809 227.544V232.691C319.809 237.283 316.087 241.004 311.493 241.004H300.009C295.416 241.004 291.693 237.283 291.693 232.691V227.544C291.773 222.952 295.416 219.231 300.009 219.231Z" fill="#E0E0E0"/>
<path d="M312.761 205.613H325.274C329.789 205.613 333.432 209.255 333.432 213.768V258.897H304.603V213.768C304.603 209.255 308.246 205.613 312.761 205.613Z" fill="#E0E0E0"/>
<path d="M312.761 205.613H312.998C317.513 205.613 321.156 209.255 321.156 213.768V258.897H304.603V213.768C304.603 209.255 308.246 205.613 312.761 205.613Z" fill="#F0F0F0"/>
<path d="M116.028 83.132C126.351 83.132 134.719 74.7665 134.719 64.4471C134.719 54.1277 126.351 45.7622 116.028 45.7622C105.705 45.7622 97.3369 54.1277 97.3369 64.4471C97.3369 74.7665 105.705 83.132 116.028 83.132Z" fill="#E0E0E0"/>
<path d="M116.028 80.2818C124.776 80.2818 131.868 73.1924 131.868 64.4471C131.868 55.7019 124.776 48.6125 116.028 48.6125C107.28 48.6125 100.188 55.7019 100.188 64.4471C100.188 73.1924 107.28 80.2818 116.028 80.2818Z" fill="#F0F0F0"/>
<path d="M115.236 75.373V64.2888L107.95 68.4058" fill="#F0F0F0"/>
<path d="M115.236 75.373V64.2888L107.95 68.4058" stroke="#E0E0E0" stroke-width="2" stroke-miterlimit="10" stroke-linecap="round" stroke-linejoin="round"/>
<path d="M339.53 40.9326H220.097V146.867H339.53V40.9326Z" fill="#E6E6E6"/>
<path d="M336.283 43.862H223.027V144.016H336.283V43.862Z" fill="#F0F0F0"/>
<path d="M249.638 43.862L223.027 143.779V96.829L237.124 43.862H249.638Z" fill="white"/>
<path d="M259.063 43.862L232.214 144.016H227.938L254.786 43.862H259.063Z" fill="white"/>
<path d="M336.283 107.042V123.035L330.897 144.016H326.621L336.283 107.042Z" fill="white"/>
<path d="M262.548 42.041H260.647V146.233H262.548V42.041Z" fill="#E6E6E6"/>
<path d="M299.534 42.041H297.633V146.233H299.534V42.041Z" fill="#E6E6E6"/>
<path d="M198 295C282.814 295 351.569 290.994 351.569 286.053C351.569 281.112 282.814 277.107 198 277.107C113.186 277.107 44.4312 281.112 44.4312 286.053C44.4312 290.994 113.186 295 198 295Z" fill="#F5F5F5"/>
<path d="M318.305 266.26C318.305 266.26 322.107 258.026 317.751 249.95C313.474 241.875 312.207 239.974 314.979 238.312C317.751 236.649 318.939 244.804 318.939 244.804C318.939 244.804 321.235 239.183 319.335 233.324C317.434 227.465 316.246 217.964 318.859 216.935C321.473 215.906 319.335 228.811 321.631 233.245C321.631 233.245 323.532 228.336 323.849 223.665C324.166 218.994 323.691 211.472 325.75 209.572C327.809 207.672 329.155 209.018 327.096 219.389C325.037 229.761 325.116 238.233 325.116 238.233C325.116 238.233 329.551 224.615 332.561 224.219C335.571 223.823 335.571 228.257 332.957 232.057C330.423 235.857 325.433 242.746 324.641 246.229C324.641 246.229 329.551 236.016 333.987 239.104C338.422 242.271 330.185 248.446 326.463 250.663C322.819 252.88 320.206 266.893 320.206 266.893L318.305 266.26Z" fill="#407BFF"/>
<path opacity="0.2" d="M318.305 266.26C318.305 266.26 322.107 258.026 317.751 249.95C313.474 241.875 312.207 239.974 314.979 238.312C317.751 236.649 318.939 244.804 318.939 244.804C318.939 244.804 321.235 239.183 319.335 233.324C317.434 227.465 316.246 217.964 318.859 216.935C321.473 215.906 319.335 228.811 321.631 233.245C321.631 233.245 323.532 228.336 323.849 223.665C324.166 218.994 323.691 211.472 325.75 209.572C327.809 207.672 329.155 209.018 327.096 219.389C325.037 229.761 325.116 238.233 325.116 238.233C325.116 238.233 329.551 224.615 332.561 224.219C335.571 223.823 335.571 228.257 332.957 232.057C330.423 235.857 325.433 242.746 324.641 246.229C324.641 246.229 329.551 236.016 333.987 239.104C338.422 242.271 330.185 248.446 326.463 250.663C322.819 252.88 320.206 266.893 320.206 266.893L318.305 266.26Z" fill="black"/>
<path d="M321.235 269.585C321.235 269.585 317.592 261.351 321.948 253.276C326.304 245.279 327.65 243.379 324.878 241.637C322.186 239.975 320.839 248.05 320.839 248.05C320.839 248.05 318.622 242.429 320.602 236.57C322.582 230.711 323.928 221.21 321.314 220.181C318.701 219.152 320.681 232.057 318.384 236.412C318.384 236.412 316.562 231.503 316.325 226.753C316.087 222.081 316.642 214.56 314.582 212.581C312.523 210.601 311.177 211.947 313.078 222.319C314.978 232.691 314.82 241.162 314.82 241.162C314.82 241.162 310.543 227.465 307.534 227.069C304.524 226.594 304.524 231.028 306.979 234.907C309.514 238.787 314.345 245.675 315.137 249.238C315.137 249.238 310.385 238.945 305.95 242.033C301.514 245.121 309.672 251.375 313.315 253.671C316.958 255.968 319.334 269.981 319.334 269.981L321.235 269.585Z" fill="#407BFF"/>
<path d="M304.366 263.727H334.62L332.165 285.341H306.821L304.366 263.727Z" fill="#263238"/>
<path d="M192.139 281.857V284.707C192.139 285.024 191.822 285.341 191.506 285.341H111.197C108.187 285.341 106.207 282.332 107.316 279.561L132.739 216.539L173.844 216.856L172.418 225.011L163.31 277.899C162.994 279.64 164.34 281.145 166.082 281.145H191.426C191.822 281.224 192.139 281.541 192.139 281.857Z" fill="#263238"/>
<path opacity="0.5" d="M192.139 281.857V284.707C192.139 285.024 191.822 285.341 191.506 285.341H111.197C108.187 285.341 106.207 282.332 107.316 279.561L123.077 240.529L132.739 216.539L173.844 216.856L172.418 225.011L168.458 248.05L163.31 277.978C162.994 279.72 164.34 281.224 166.082 281.224H191.426C191.822 281.224 192.139 281.541 192.139 281.857Z" fill="white"/>
<path opacity="0.2" d="M166.162 281.224H113.89C112.543 281.224 111.672 279.878 112.227 278.69L134.561 225.011H172.498L163.39 277.899C163.073 279.72 164.419 281.224 166.162 281.224Z" fill="black"/>
<path opacity="0.1" d="M173.844 216.856L172.497 225.09L168.537 248.05L123.077 240.529L132.739 216.618L173.844 216.856Z" fill="black"/>
<path d="M253.836 99.3626H249.797H67.4784H63.4392C60.7464 99.3626 58.5288 101.579 58.5288 104.271V233.166C58.5288 235.857 60.7464 238.074 63.4392 238.074H67.4784H249.876H253.915C256.608 238.074 258.826 235.857 258.826 233.166V104.271C258.746 101.579 256.529 99.3626 253.836 99.3626Z" fill="#263238"/>
<path opacity="0.6" d="M253.836 99.3626H249.797H67.4784H63.4392C60.7464 99.3626 58.5288 101.579 58.5288 104.271V233.166C58.5288 235.857 60.7464 238.074 63.4392 238.074H67.4784H249.876H253.915C256.608 238.074 258.826 235.857 258.826 233.166V104.271C258.746 101.579 256.529 99.3626 253.836 99.3626Z" fill="white"/>
<path opacity="0.2" d="M67.4788 237.995H63.4396C60.7468 237.995 58.6084 235.778 58.6084 233.166V104.271C58.6084 101.579 60.826 99.3626 63.4396 99.3626H67.4788C64.786 99.3626 62.6476 101.579 62.6476 104.271V233.166C62.5684 235.857 64.786 237.995 67.4788 237.995Z" fill="black"/>
<path d="M254.391 103.559H67.0034V227.861H254.391V103.559Z" fill="#407BFF"/>
<path opacity="0.4" d="M158.083 150.825C167.05 150.825 174.319 143.559 174.319 134.595C174.319 125.631 167.05 118.364 158.083 118.364C149.116 118.364 141.847 125.631 141.847 134.595C141.847 143.559 149.116 150.825 158.083 150.825Z" fill="white"/>
<path d="M154.202 132.14V130.636C154.202 129.132 155.39 127.944 156.895 127.944H159.271C160.776 127.944 161.964 129.132 161.964 130.636V132.14H163.706V130.636C163.706 128.182 161.726 126.202 159.271 126.202H156.895C154.44 126.202 152.46 128.182 152.46 130.636V132.14H154.202Z" fill="white"/>
<path d="M150.322 134.199V142.195C150.322 142.67 150.718 143.066 151.193 143.066H165.053C165.528 143.066 165.924 142.67 165.924 142.195V134.199C165.924 133.724 165.528 133.328 165.053 133.328H151.193C150.718 133.249 150.322 133.645 150.322 134.199ZM158.559 138.712V140.295H157.608V138.712C157.291 138.553 157.133 138.237 157.133 137.92C157.133 137.366 157.608 136.97 158.083 136.97C158.638 136.97 159.034 137.445 159.034 137.92C159.034 138.237 158.875 138.553 158.559 138.712Z" fill="white"/>
<path d="M118.404 183.049H103.039C102.089 183.049 101.376 182.336 101.376 181.386V166.027C101.376 165.076 102.089 164.364 103.039 164.364H118.404C119.354 164.364 120.067 165.076 120.067 166.027V181.386C120.067 182.257 119.275 183.049 118.404 183.049Z" fill="white"/>
<path d="M142.085 182.97H126.72C125.769 182.97 125.057 182.257 125.057 181.307V165.947C125.057 164.997 125.769 164.285 126.72 164.285H142.085C143.035 164.285 143.748 164.997 143.748 165.947V181.307C143.748 182.257 143.035 182.97 142.085 182.97Z" fill="white"/>
<path d="M165.766 182.97H150.401C149.451 182.97 148.738 182.257 148.738 181.307V165.947C148.738 164.997 149.451 164.285 150.401 164.285H165.766C166.716 164.285 167.429 164.997 167.429 165.947V181.307C167.429 182.257 166.716 182.97 165.766 182.97Z" fill="white"/>
<path d="M189.446 182.97H174.082C173.131 182.97 172.418 182.257 172.418 181.307V165.947C172.418 164.997 173.131 164.285 174.082 164.285H189.446C190.397 164.285 191.11 164.997 191.11 165.947V181.307C191.11 182.178 190.397 182.97 189.446 182.97Z" fill="white"/>
<path d="M213.127 182.89H197.762C196.812 182.89 196.099 182.178 196.099 181.228V165.868C196.099 164.918 196.812 164.206 197.762 164.206H213.127C214.078 164.206 214.79 164.918 214.79 165.868V181.307C214.79 182.178 214.078 182.89 213.127 182.89Z" fill="white"/>
<path d="M201.326 173.944C201.326 170.698 203.069 168.798 205.445 168.798C207.821 168.798 209.563 170.698 209.563 173.944C209.563 177.19 207.821 179.09 205.445 179.09C203.069 179.09 201.326 177.269 201.326 173.944ZM208.137 173.944C208.137 171.331 207.029 170.064 205.445 170.064C203.861 170.064 202.752 171.331 202.752 173.944C202.752 176.557 203.861 177.823 205.445 177.823C207.029 177.823 208.137 176.557 208.137 173.944Z" fill="#263238"/>
<path d="M114.444 173.865C114.444 177.269 112.464 179.169 109.692 179.169C108.742 179.169 107.871 179.011 107.158 178.615L107.712 177.507C108.267 177.823 108.9 177.982 109.692 177.982C111.751 177.982 113.019 176.715 113.019 174.181V173.786C112.464 174.656 111.355 175.132 110.088 175.132C108.108 175.132 106.683 173.944 106.683 172.044C106.683 170.064 108.267 168.877 110.247 168.877C112.939 168.798 114.444 170.619 114.444 173.865ZM112.702 171.885C112.702 170.856 111.831 169.906 110.326 169.906C108.979 169.906 108.108 170.698 108.108 171.885C108.108 173.073 108.979 173.865 110.405 173.865C111.751 173.865 112.702 172.994 112.702 171.885Z" fill="#263238"/>
<path d="M130.284 173.944C130.284 170.698 132.027 168.798 134.403 168.798C136.779 168.798 138.521 170.698 138.521 173.944C138.521 177.19 136.779 179.09 134.403 179.09C132.027 179.09 130.284 177.269 130.284 173.944ZM137.095 173.944C137.095 171.331 135.987 170.064 134.403 170.064C132.819 170.064 131.71 171.331 131.71 173.944C131.71 176.557 132.819 177.823 134.403 177.823C135.987 177.823 137.095 176.557 137.095 173.944Z" fill="#263238"/>
<path d="M161.726 177.744V179.011H154.519V178.061L158.637 174.102C159.667 173.073 159.905 172.44 159.905 171.806C159.905 170.777 159.192 170.144 157.766 170.144C156.657 170.144 155.786 170.46 155.153 171.252L154.202 170.381C154.994 169.431 156.341 168.877 157.925 168.877C160.063 168.877 161.409 169.985 161.409 171.648C161.409 172.598 161.093 173.469 159.746 174.815L156.657 177.744H161.726Z" fill="#263238"/>
<path d="M182.952 168.956V179.011H181.526V170.223H179.229V168.956H182.952Z" fill="#263238"/>
<g opacity="0.6">
<path opacity="0.6" d="M140.342 159.772V160.089H137.57V156.209H140.263V156.526H138.046V157.872H140.026V158.188H138.046V159.614H140.342V159.772Z" fill="white"/>
<path opacity="0.6" d="M143.906 158.426V160.089H143.51V158.426C143.51 157.793 143.193 157.476 142.639 157.476C142.005 157.476 141.609 157.872 141.609 158.505V160.009H141.213V157.08H141.609V157.634C141.847 157.318 142.243 157.08 142.718 157.08C143.431 157.238 143.906 157.634 143.906 158.426Z" fill="white"/>
<path opacity="0.6" d="M146.52 160.009C146.362 160.168 146.124 160.247 145.887 160.247C145.332 160.247 145.015 159.93 145.015 159.376V157.555H144.461V157.238H145.015V156.605H145.411V157.238H146.283V157.555H145.411V159.297C145.411 159.614 145.57 159.851 145.887 159.851C146.045 159.851 146.203 159.772 146.283 159.693L146.52 160.009Z" fill="white"/>
<path opacity="0.6" d="M149.688 158.822H147.233C147.312 159.455 147.708 159.851 148.342 159.851C148.659 159.851 148.975 159.693 149.213 159.455L149.451 159.693C149.213 160.009 148.817 160.168 148.342 160.168C147.471 160.168 146.837 159.534 146.837 158.663C146.837 157.793 147.471 157.159 148.263 157.159C149.055 157.159 149.688 157.793 149.688 158.663C149.688 158.743 149.688 158.743 149.688 158.822ZM147.233 158.505H149.292C149.213 157.951 148.817 157.555 148.263 157.555C147.708 157.555 147.312 157.951 147.233 158.505Z" fill="white"/>
<path opacity="0.6" d="M151.985 157.238V157.634H151.906C151.272 157.634 150.955 158.03 150.955 158.743V160.247H150.48V157.317H150.876V157.872C151.034 157.397 151.43 157.238 151.985 157.238Z" fill="white"/>
<path opacity="0.6" d="M156.579 157.238L155.153 160.484C154.915 161.039 154.599 161.276 154.203 161.276C153.965 161.276 153.648 161.197 153.49 161.039L153.648 160.722C153.807 160.88 153.965 160.959 154.203 160.959C154.44 160.959 154.678 160.801 154.836 160.484L154.995 160.168L153.727 157.238H154.123L155.232 159.693L156.341 157.238H156.579Z" fill="white"/>
<path opacity="0.6" d="M156.816 158.663C156.816 157.793 157.45 157.159 158.321 157.159C159.192 157.159 159.826 157.793 159.826 158.663C159.826 159.534 159.192 160.168 158.321 160.168C157.45 160.168 156.816 159.534 156.816 158.663ZM159.35 158.663C159.35 157.951 158.875 157.555 158.242 157.555C157.608 157.555 157.133 158.03 157.133 158.663C157.133 159.297 157.608 159.772 158.242 159.772C158.875 159.851 159.35 159.376 159.35 158.663Z" fill="white"/>
<path opacity="0.6" d="M163.231 157.238V160.168H162.835V159.614C162.597 159.93 162.28 160.168 161.805 160.168C161.092 160.168 160.538 159.772 160.538 158.901V157.238H160.934V158.901C160.934 159.534 161.251 159.851 161.805 159.851C162.439 159.851 162.835 159.455 162.835 158.822V157.317H163.231V157.238Z" fill="white"/>
<path opacity="0.6" d="M165.765 157.238V157.634H165.686C165.053 157.634 164.736 158.03 164.736 158.743V160.247H164.34V157.317H164.736V157.872C164.894 157.397 165.211 157.238 165.765 157.238Z" fill="white"/>
<path opacity="0.6" d="M167.746 158.188C167.746 157.08 168.617 156.209 169.805 156.209C170.993 156.209 171.864 157.08 171.864 158.188C171.864 159.297 170.993 160.168 169.805 160.168C168.538 160.168 167.746 159.376 167.746 158.188ZM171.389 158.188C171.389 157.238 170.676 156.605 169.726 156.605C168.775 156.605 168.062 157.317 168.062 158.188C168.062 159.138 168.775 159.772 169.726 159.772C170.676 159.851 171.389 159.138 171.389 158.188Z" fill="white"/>
<path opacity="0.6" d="M173.369 156.605H172.022V156.288H175.19V156.605H173.844V160.168H173.448V156.605H173.369Z" fill="white"/>
<path opacity="0.6" d="M178.833 157.634C178.833 158.426 178.2 158.98 177.249 158.98H176.22V160.168H175.824V156.288H177.249C178.279 156.288 178.833 156.763 178.833 157.634ZM178.437 157.634C178.437 157.001 178.041 156.684 177.249 156.684H176.22V158.663H177.249C178.041 158.584 178.437 158.188 178.437 157.634Z" fill="white"/>
</g>
<g opacity="0.6">
<path opacity="0.6" d="M142.639 193.104L142.798 192.787C143.114 193.025 143.59 193.262 144.065 193.262C144.778 193.262 145.094 192.945 145.094 192.55C145.094 191.52 142.718 192.154 142.718 190.729C142.718 190.174 143.194 189.699 144.144 189.699C144.619 189.699 145.015 189.858 145.332 190.016L145.174 190.333C144.857 190.095 144.461 190.016 144.144 190.016C143.431 190.016 143.114 190.333 143.114 190.729C143.114 191.758 145.49 191.125 145.49 192.55C145.49 193.104 145.015 193.579 144.065 193.579C143.51 193.658 142.956 193.421 142.639 193.104Z" fill="white"/>
<path opacity="0.6" d="M148.896 192.312H146.441C146.52 192.945 146.916 193.341 147.55 193.341C147.867 193.341 148.183 193.183 148.421 192.945L148.659 193.183C148.421 193.5 148.025 193.658 147.55 193.658C146.679 193.658 146.045 193.025 146.045 192.154C146.045 191.283 146.679 190.649 147.471 190.649C148.263 190.649 148.896 191.283 148.896 192.154C148.896 192.154 148.896 192.233 148.896 192.312ZM146.441 191.995H148.5C148.421 191.441 148.025 191.045 147.471 191.045C146.916 191.045 146.52 191.441 146.441 191.995Z" fill="white"/>
<path opacity="0.6" d="M152.381 191.916V193.579H151.985V191.916C151.985 191.283 151.668 190.966 151.114 190.966C150.48 190.966 150.084 191.362 150.084 191.995V193.5H149.688V190.57H150.084V191.125C150.322 190.808 150.718 190.57 151.193 190.57C151.906 190.649 152.381 191.045 152.381 191.916Z" fill="white"/>
<path opacity="0.6" d="M156.182 189.462V193.579H155.786V193.025C155.549 193.421 155.153 193.658 154.678 193.658C153.806 193.658 153.252 193.025 153.252 192.154C153.252 191.283 153.886 190.649 154.678 190.649C155.153 190.649 155.549 190.887 155.786 191.204V189.462H156.182ZM155.786 192.154C155.786 191.441 155.311 191.045 154.678 191.045C154.044 191.045 153.569 191.52 153.569 192.154C153.569 192.866 154.044 193.262 154.678 193.262C155.311 193.262 155.786 192.866 155.786 192.154Z" fill="white"/>
<path opacity="0.6" d="M160.934 191.837V193.658H160.538V193.183C160.38 193.5 159.984 193.658 159.509 193.658C158.875 193.658 158.479 193.341 158.479 192.787C158.479 192.312 158.796 191.995 159.588 191.995H160.538V191.837C160.538 191.362 160.221 191.045 159.746 191.045C159.35 191.045 159.033 191.204 158.796 191.362L158.637 191.045C158.954 190.808 159.35 190.649 159.825 190.649C160.459 190.649 160.934 191.045 160.934 191.837ZM160.538 192.708V192.233H159.588C159.033 192.233 158.875 192.47 158.875 192.787C158.875 193.104 159.113 193.341 159.588 193.341C159.984 193.341 160.38 193.104 160.538 192.708Z" fill="white"/>
<path opacity="0.6" d="M164.657 190.729V193.262C164.657 194.291 164.182 194.687 163.231 194.687C162.677 194.687 162.202 194.529 161.885 194.212L162.122 193.896C162.439 194.133 162.835 194.291 163.231 194.291C163.944 194.291 164.34 193.975 164.34 193.262V192.866C164.102 193.262 163.706 193.421 163.231 193.421C162.36 193.421 161.806 192.866 161.806 191.995C161.806 191.125 162.439 190.57 163.231 190.57C163.706 190.57 164.102 190.808 164.419 191.125V190.57H164.657V190.729ZM164.261 192.075C164.261 191.441 163.786 191.045 163.152 191.045C162.518 191.045 162.043 191.441 162.043 192.075C162.043 192.708 162.518 193.183 163.152 193.183C163.786 193.183 164.261 192.708 164.261 192.075Z" fill="white"/>
<path opacity="0.6" d="M167.983 191.837V193.658H167.587V193.183C167.429 193.5 167.033 193.658 166.557 193.658C165.924 193.658 165.528 193.341 165.528 192.787C165.528 192.312 165.845 191.995 166.637 191.995H167.587V191.837C167.587 191.362 167.27 191.045 166.795 191.045C166.399 191.045 166.082 191.204 165.845 191.362L165.686 191.045C166.003 190.808 166.399 190.649 166.874 190.649C167.587 190.649 167.983 191.045 167.983 191.837ZM167.587 192.708V192.233H166.637C166.082 192.233 165.924 192.47 165.924 192.787C165.924 193.104 166.161 193.341 166.637 193.341C167.112 193.341 167.429 193.104 167.587 192.708Z" fill="white"/>
<path opacity="0.6" d="M168.934 189.779C168.934 189.62 169.092 189.462 169.25 189.462C169.409 189.462 169.567 189.62 169.567 189.699C169.567 189.858 169.409 190.016 169.25 190.016C169.092 190.016 168.934 189.937 168.934 189.779ZM169.092 190.729H169.488V193.658H169.092V190.729Z" fill="white"/>
<path opacity="0.6" d="M173.21 191.916V193.579H172.814V191.916C172.814 191.283 172.498 190.966 171.943 190.966C171.31 190.966 170.914 191.362 170.914 191.995V193.5H170.518V190.57H170.914V191.125C171.151 190.808 171.547 190.57 172.022 190.57C172.735 190.649 173.21 191.045 173.21 191.916Z" fill="white"/>
</g>
<path opacity="0.4" d="M180.18 213.372H136.066C132.423 213.372 129.492 210.443 129.492 206.801C129.492 203.159 132.423 200.229 136.066 200.229H180.18C183.823 200.229 186.754 203.159 186.754 206.801C186.754 210.443 183.823 213.372 180.18 213.372Z" fill="white"/>
<path d="M140.897 206.484C140.897 205.138 141.927 204.188 143.273 204.188C143.986 204.188 144.54 204.426 144.936 204.901L144.54 205.297C144.223 204.901 143.748 204.742 143.273 204.742C142.243 204.742 141.531 205.455 141.531 206.484C141.531 207.434 142.243 208.226 143.273 208.226C143.748 208.226 144.144 208.068 144.54 207.672L144.936 208.068C144.54 208.543 143.907 208.78 143.273 208.78C141.847 208.78 140.897 207.83 140.897 206.484Z" fill="white"/>
<path d="M145.332 206.484C145.332 205.217 146.362 204.188 147.708 204.188C149.054 204.188 150.084 205.138 150.084 206.484C150.084 207.751 149.054 208.78 147.708 208.78C146.362 208.78 145.332 207.751 145.332 206.484ZM149.45 206.484C149.45 205.534 148.738 204.742 147.708 204.742C146.678 204.742 145.966 205.455 145.966 206.484C145.966 207.434 146.678 208.226 147.708 208.226C148.658 208.226 149.45 207.434 149.45 206.484Z" fill="white"/>
<path d="M154.836 204.267V208.701H154.282L151.589 205.376V208.701H150.956V204.267H151.51L154.203 207.593V204.267H154.836Z" fill="white"/>
<path d="M157.054 204.822H155.549V204.267H159.192V204.822H157.687V208.701H157.054V204.822Z" fill="white"/>
<path d="M159.905 204.267H160.538V208.701H159.905V204.267Z" fill="white"/>
<path d="M165.686 204.267V208.701H165.132L162.439 205.376V208.701H161.806V204.267H162.36L165.053 207.593V204.267H165.686Z" fill="white"/>
<path d="M166.954 206.801V204.267H167.587V206.801C167.587 207.751 168.062 208.226 168.854 208.226C169.646 208.226 170.122 207.751 170.122 206.801V204.267H170.755V206.801C170.755 208.068 170.042 208.78 168.854 208.78C167.666 208.78 166.954 208.068 166.954 206.801Z" fill="white"/>
<path d="M175.27 208.147V208.701H172.022V204.267H175.19V204.822H172.656V206.167H174.874V206.722H172.656V208.147H175.27Z" fill="white"/>
<path opacity="0.1" d="M234.828 104.192C208.93 130.161 142.402 187.878 67.0034 183.603V104.192H234.828Z" fill="white"/>
<path opacity="0.1" d="M254.312 151.855V228.415H141.531C145.887 212.976 154.52 191.758 171.31 176.636C201.485 149.4 236.492 149.479 254.312 151.855Z" fill="white"/>
<path d="M278.15 91.9203L280.764 103.559L283.457 91.9203H278.15Z" fill="#407BFF"/>
<path opacity="0.7" d="M278.15 91.9203L280.764 103.559L283.457 91.9203H278.15Z" fill="white"/>
<path d="M310.226 94.533H251.381C247.658 94.533 244.569 91.5244 244.569 87.7241V65.8722C244.569 62.1511 247.579 59.0633 251.381 59.0633H310.226C313.949 59.0633 317.037 62.0719 317.037 65.8722V87.7241C317.037 91.4453 313.949 94.533 310.226 94.533Z" fill="#407BFF"/>
<path opacity="0.7" d="M310.226 94.533H251.381C247.658 94.533 244.569 91.5244 244.569 87.7241V65.8722C244.569 62.1511 247.579 59.0633 251.381 59.0633H310.226C313.949 59.0633 317.037 62.0719 317.037 65.8722V87.7241C317.037 91.4453 313.949 94.533 310.226 94.533Z" fill="white"/>
<g opacity="0.5">
<path opacity="0.5" d="M259.063 72.1269V73.6312H258.429V72.0478L256.687 69.1975H257.4L258.825 71.5727L260.251 69.1975H260.885L259.063 72.1269Z" fill="#263238"/>
<path opacity="0.5" d="M260.647 71.9686C260.647 70.9393 261.36 70.2268 262.389 70.2268C263.419 70.2268 264.132 70.9393 264.132 71.9686C264.132 72.9979 263.419 73.7104 262.389 73.7104C261.439 73.6312 260.647 72.9187 260.647 71.9686ZM263.577 71.9686C263.577 71.256 263.102 70.781 262.469 70.781C261.835 70.781 261.36 71.256 261.36 71.9686C261.36 72.6812 261.835 73.1562 262.469 73.1562C263.102 73.1562 263.577 72.6812 263.577 71.9686Z" fill="#263238"/>
<path opacity="0.5" d="M268.171 70.306V73.6312H267.616V73.1562C267.379 73.4729 266.983 73.7104 266.508 73.7104C265.636 73.7104 265.082 73.2354 265.082 72.2853V70.3851H265.716V72.2853C265.716 72.9187 266.032 73.2354 266.587 73.2354C267.22 73.2354 267.616 72.8395 267.616 72.1269V70.3851H268.171V70.306Z" fill="#263238"/>
<path opacity="0.5" d="M271.101 70.2268V70.781C271.022 70.781 271.022 70.781 270.943 70.781C270.309 70.781 269.913 71.1769 269.913 71.8894V73.6312H269.28V70.306H269.834V70.8602C270.072 70.4643 270.547 70.2268 271.101 70.2268Z" fill="#263238"/>
<path opacity="0.5" d="M273.319 71.4144C273.319 70.1476 274.348 69.1183 275.695 69.1183C277.041 69.1183 278.071 70.0684 278.071 71.4144C278.071 72.6811 277.041 73.7104 275.695 73.7104C274.348 73.7104 273.319 72.6811 273.319 71.4144ZM277.437 71.4144C277.437 70.4643 276.724 69.6726 275.695 69.6726C274.665 69.6726 273.952 70.3851 273.952 71.4144C273.952 72.3644 274.665 73.1562 275.695 73.1562C276.645 73.077 277.437 72.3644 277.437 71.4144Z" fill="#263238"/>
<path opacity="0.5" d="M279.813 69.7517H278.309V69.1975H281.952V69.7517H280.447V73.6312H279.813V69.7517Z" fill="#263238"/>
<path opacity="0.5" d="M286.229 70.7018C286.229 71.6519 285.516 72.2853 284.407 72.2853H283.298V73.6312H282.665V69.1975H284.407C285.516 69.1975 286.229 69.7517 286.229 70.7018ZM285.595 70.7018C285.595 70.0684 285.199 69.6725 284.328 69.6725H283.219V71.6519H284.328C285.199 71.7311 285.595 71.3352 285.595 70.7018Z" fill="#263238"/>
<path opacity="0.5" d="M288.604 71.4144C288.604 70.0684 289.634 69.1183 290.98 69.1183C291.693 69.1183 292.248 69.3559 292.644 69.8309L292.248 70.2268C291.931 69.8309 291.456 69.6726 290.98 69.6726C289.951 69.6726 289.238 70.3851 289.238 71.4144C289.238 72.3644 289.951 73.1562 290.98 73.1562C291.456 73.1562 291.852 72.9978 292.248 72.602L292.644 72.9978C292.248 73.4729 291.614 73.7104 290.98 73.7104C289.555 73.7104 288.604 72.6811 288.604 71.4144Z" fill="#263238"/>
<path opacity="0.5" d="M292.96 71.9686C292.96 70.9393 293.673 70.2268 294.703 70.2268C295.732 70.2268 296.445 70.9393 296.445 71.9686C296.445 72.9979 295.732 73.7104 294.703 73.7104C293.752 73.6312 292.96 72.9187 292.96 71.9686ZM295.891 71.9686C295.891 71.256 295.416 70.781 294.782 70.781C294.148 70.781 293.673 71.256 293.673 71.9686C293.673 72.6812 294.148 73.1562 294.782 73.1562C295.416 73.1562 295.891 72.6812 295.891 71.9686Z" fill="#263238"/>
<path opacity="0.5" d="M300.485 68.96V73.6312H299.93V73.077C299.693 73.4729 299.217 73.6312 298.742 73.6312C297.792 73.6312 297.079 72.9187 297.079 71.8894C297.079 70.8602 297.792 70.1476 298.742 70.1476C299.217 70.1476 299.613 70.306 299.93 70.7018V68.8808H300.485V68.96ZM299.851 71.9686C299.851 71.256 299.376 70.781 298.742 70.781C298.109 70.781 297.633 71.256 297.633 71.9686C297.633 72.6812 298.109 73.1562 298.742 73.1562C299.376 73.1562 299.851 72.6812 299.851 71.9686Z" fill="#263238"/>
<path opacity="0.5" d="M304.682 72.1269H301.989C302.068 72.6812 302.544 73.077 303.177 73.077C303.573 73.077 303.89 72.9187 304.128 72.6812L304.444 73.077C304.128 73.3937 303.652 73.6312 303.098 73.6312C301.989 73.6312 301.276 72.9187 301.276 71.8894C301.276 70.8602 301.989 70.1476 302.94 70.1476C303.89 70.1476 304.603 70.8602 304.603 71.8894C304.682 72.0478 304.682 72.1269 304.682 72.1269ZM301.91 71.7311H304.048C303.969 71.1769 303.573 70.781 302.94 70.781C302.464 70.781 301.989 71.1769 301.91 71.7311Z" fill="#263238"/>
</g>
<g opacity="0.5">
<path opacity="0.5" d="M271.656 80.5193C271.656 82.9737 270.23 84.3196 268.171 84.3196C267.458 84.3196 266.825 84.1613 266.35 83.9238L266.746 83.132C267.142 83.3696 267.617 83.4487 268.171 83.4487C269.676 83.4487 270.626 82.4987 270.626 80.6777V80.4402C270.23 81.0735 269.438 81.3902 268.488 81.3902C267.062 81.3902 266.033 80.5193 266.033 79.1734C266.033 77.7483 267.142 76.8773 268.646 76.8773C270.547 76.9565 271.656 78.2233 271.656 80.5193ZM270.389 79.1734C270.389 78.4608 269.755 77.7483 268.646 77.7483C267.696 77.7483 267.062 78.3025 267.062 79.1734C267.062 80.0443 267.696 80.5985 268.726 80.5985C269.676 80.5985 270.389 79.9651 270.389 79.1734Z" fill="#263238"/>
<path opacity="0.5" d="M272.686 80.6777C272.686 78.3025 273.953 76.9565 275.695 76.9565C277.358 76.9565 278.705 78.3025 278.705 80.6777C278.705 83.0529 277.438 84.3988 275.695 84.3988C273.953 84.3988 272.686 83.0529 272.686 80.6777ZM277.596 80.6777C277.596 78.7775 276.804 77.9066 275.695 77.9066C274.586 77.9066 273.794 78.8567 273.794 80.6777C273.794 82.5778 274.586 83.4487 275.695 83.4487C276.804 83.4487 277.596 82.4987 277.596 80.6777Z" fill="#263238"/>
<path opacity="0.5" d="M284.724 83.3696V84.2405H279.497V83.5279L282.506 80.6777C283.298 79.9651 283.457 79.4901 283.457 79.015C283.457 78.3025 282.902 77.8274 281.873 77.8274C281.081 77.8274 280.447 78.065 279.972 78.6192L279.259 77.9858C279.814 77.2732 280.764 76.8773 281.952 76.8773C283.457 76.8773 284.486 77.6691 284.486 78.9359C284.486 79.6484 284.249 80.2818 283.298 81.2319L281.081 83.3696H284.724Z" fill="#263238"/>
<path opacity="0.5" d="M287.813 77.0357V84.3196H286.783V77.9066H285.12V77.0357H287.813Z" fill="#263238"/>
<path opacity="0.5" d="M289.396 80.6777C289.396 78.3025 290.664 76.9565 292.406 76.9565C294.069 76.9565 295.416 78.3025 295.416 80.6777C295.416 83.0529 294.148 84.3988 292.406 84.3988C290.743 84.3988 289.396 83.0529 289.396 80.6777ZM294.307 80.6777C294.307 78.7775 293.515 77.9066 292.406 77.9066C291.297 77.9066 290.505 78.8567 290.505 80.6777C290.505 82.5778 291.297 83.4487 292.406 83.4487C293.515 83.4487 294.307 82.4987 294.307 80.6777Z" fill="#263238"/>
</g>
<path d="M274.269 125.965L275.061 126.519L275.933 127.073C276.566 127.469 277.2 127.786 277.754 128.182C279.021 128.894 280.289 129.607 281.635 130.161C284.249 131.349 286.941 132.299 289.713 132.932H289.872C289.951 132.932 289.951 132.932 289.951 132.932C289.872 132.932 289.872 132.932 289.793 132.932C289.634 132.932 289.238 133.011 288.842 133.249C288.446 133.486 288.129 133.882 288.05 134.12C287.971 134.357 287.971 134.516 287.971 134.516C287.971 134.595 288.05 134.357 288.05 134.12C288.05 133.882 288.05 133.565 287.971 133.249C287.733 131.982 287.337 130.557 286.941 129.132C286.07 126.282 284.961 123.352 283.932 120.502L287.021 118.839C288.842 121.452 290.505 124.223 291.931 127.152C292.644 128.657 293.277 130.161 293.832 131.903C293.99 132.378 294.069 132.853 294.149 133.328C294.228 133.882 294.307 134.436 294.228 135.228C294.149 135.624 294.069 136.099 293.832 136.732C293.594 137.287 293.04 137.999 292.248 138.474C291.456 138.949 290.743 139.028 290.189 139.108C289.872 139.108 289.634 139.108 289.397 139.108H289.159H289.001C285.595 138.633 282.348 137.762 279.259 136.416C277.754 135.782 276.17 135.07 274.745 134.278C274.032 133.882 273.319 133.407 272.606 133.011C272.289 132.774 271.893 132.536 271.577 132.299C271.181 132.061 270.864 131.824 270.468 131.507L274.269 125.965Z" fill="#DC897C"/>
<path d="M273.398 125.095C277.992 125.649 281.001 128.182 281.001 128.182L277.833 138C277.833 138 262.469 123.828 273.398 125.095Z" fill="#407BFF"/>
<path opacity="0.6" d="M273.398 133.407C275.616 135.941 277.833 137.999 277.833 137.999L279.18 133.961L281.08 128.182C281.08 128.182 277.992 125.569 273.477 125.094C266.666 124.302 269.913 129.369 273.398 133.407Z" fill="white"/>
<path opacity="0.2" d="M273.398 133.407C275.616 135.941 277.833 137.999 277.833 137.999L279.18 133.961C276.408 131.824 273.398 131.982 273.398 131.982C273.319 132.457 273.319 132.932 273.398 133.407Z" fill="black"/>
<path d="M239.184 110.605C239.184 110.605 231.818 135.07 247.341 138.395C262.865 141.641 264.449 130.399 264.449 130.399C264.449 130.399 251.777 111.159 239.184 110.605Z" fill="#263238"/>
<path d="M235.541 118.523C235.541 118.523 236.333 117.097 237.679 117.018" stroke="#263238" stroke-width="0.482" stroke-miterlimit="10" stroke-linecap="round" stroke-linejoin="round"/>
<path d="M237.758 121.769C237.758 121.769 237.6 123.431 237.125 124.54C237.125 124.54 237.837 125.094 238.709 124.54L237.758 121.769Z" fill="#DE5753"/>
<path d="M236.486 119.722C236.2 119.83 236.106 120.283 236.277 120.733C236.448 121.182 236.819 121.459 237.105 121.35C237.392 121.241 237.485 120.788 237.314 120.339C237.143 119.889 236.772 119.613 236.486 119.722Z" fill="#263238"/>
<path d="M236.649 119.71H235.541C235.541 119.71 236.333 120.344 236.649 119.71Z" fill="#263238"/>
<path d="M252.014 124.856C252.014 124.936 251.935 125.015 251.935 125.015C251.856 125.173 251.776 125.252 251.697 125.411C251.222 126.202 250.668 126.994 249.876 127.627C247.5 129.528 245.44 130.082 243.619 129.528C243.54 129.528 243.46 129.448 243.381 129.448C240.688 128.34 238.629 125.173 236.966 120.977C236.174 119.077 235.699 117.256 235.62 115.751V115.672C235.62 115.593 235.62 115.514 235.62 115.435C235.54 113.297 236.332 111.555 238.154 110.051C238.788 109.576 239.58 109.101 240.451 108.626C248.292 104.826 255.974 117.335 252.014 124.856Z" fill="#E4897B"/>
<path opacity="0.2" d="M251.698 125.411C251.222 126.202 250.668 126.994 249.876 127.627C247.5 129.528 245.441 130.082 243.619 129.528C245.045 129.132 246.787 128.34 248.134 126.757C249.005 125.806 250.272 125.411 251.698 125.411Z" fill="black"/>
<path d="M235.541 115.672C235.541 115.672 237.759 121.452 244.174 121.373C244.174 121.373 249.243 126.123 252.648 124.619C257.321 122.56 258.271 114.168 253.519 108.23C247.421 100.629 234.036 106.092 235.541 115.672Z" fill="#263238"/>
<path d="M240.768 121.056C240.372 120.185 240.372 118.364 241.797 117.968C243.302 117.493 245.757 120.581 242.668 123.035C242.193 123.352 241.639 122.877 240.768 121.056Z" fill="#E4897B"/>
<path d="M242.51 105.063C242.51 105.063 236.491 106.251 234.59 109.813C232.293 113.93 232.214 117.177 238.233 119.235C238.233 119.235 245.837 112.109 249.084 111.318C252.331 110.526 254.945 110.368 254.945 110.368C252.727 104.192 244.886 102.45 242.51 105.063Z" fill="#263238"/>
<path d="M248.292 127.707C248.292 127.707 252.41 130.557 253.519 135.228L266.35 127.707C266.35 127.707 256.291 125.411 254.549 121.531C254.549 121.61 247.817 122.481 248.292 127.707Z" fill="#E4897B"/>
<path d="M261.043 158.584C261.043 158.584 244.411 142.275 242.589 137.128C242.589 137.128 249.559 126.202 263.577 125.806C277.596 125.331 287.1 151.934 287.1 151.934L261.043 158.584Z" fill="#407BFF"/>
<path opacity="0.6" d="M287.1 151.934L261.043 158.584C261.043 158.584 257.4 155.021 253.361 150.667C252.094 149.321 250.827 147.896 249.559 146.471C246.233 142.75 243.303 139.028 242.669 137.049C242.669 137.049 249.639 126.123 263.657 125.727C277.596 125.331 287.1 151.934 287.1 151.934Z" fill="white"/>
<path d="M245.52 118.602C245.52 118.602 247.975 126.677 256.45 129.369C265.003 132.061 262.865 140.77 271.102 139.741C275.537 139.187 279.259 130.24 265.795 122.323C257.955 117.731 260.964 102.609 244.253 104.034C244.253 104.034 247.738 114.326 245.52 118.602Z" fill="#263238"/>
<path d="M253.836 281.699L249.876 280.828C250.51 261.035 253.361 237.124 255.895 219.152C256.291 216.302 256.687 213.689 257.083 211.155C257.242 209.968 257.4 208.859 257.638 207.751C258.43 202.367 259.142 198.092 259.618 195.479C259.934 193.579 260.093 192.47 260.093 192.47L274.349 195.954L273.319 199.517L269.914 211.393L269.518 212.739L267.3 220.577L263.498 233.878C263.657 253.988 253.836 281.699 253.836 281.699Z" fill="#E4897B"/>
<path d="M287.734 278.374L283.695 278.136C280.606 256.838 279.339 230.236 278.784 211.71C278.705 208.859 278.626 206.167 278.547 203.713C278.547 203.555 278.547 203.476 278.547 203.317C278.467 198.488 278.388 194.687 278.388 192.233C278.388 190.333 278.388 189.304 278.388 189.304L293.04 190.254L292.407 196.35L291.456 205.297L291.298 207.038L290.664 213.135L289.001 229.524C292.644 249.396 287.734 278.374 287.734 278.374Z" fill="#E4897B"/>
<path d="M289.238 277.582C289.238 277.107 282.982 277.503 282.982 277.503C282.982 277.503 279.18 281.382 275.378 282.253C271.656 283.124 273.715 285.341 277.913 285.341C282.11 285.341 285.278 285.341 288.209 285.341C291.218 285.341 289.318 282.807 289.238 277.582Z" fill="#263238"/>
<path d="M279.18 278.928C279.022 278.849 278.943 278.611 279.022 278.294C279.101 278.136 279.18 277.978 279.339 277.899C279.655 277.74 280.21 277.661 280.764 277.74C280.289 277.503 279.814 277.107 279.814 276.79C279.814 276.553 279.972 276.394 280.21 276.236C280.447 276.078 280.764 276.078 281.002 276.236C281.873 276.553 282.348 278.057 282.427 278.136C282.427 278.215 282.427 278.215 282.427 278.294C282.427 278.294 282.427 278.294 282.348 278.374C282.031 278.532 280.606 279.165 279.735 279.165C279.497 279.086 279.259 279.007 279.18 278.928ZM279.497 278.136C279.418 278.215 279.339 278.294 279.339 278.374C279.259 278.611 279.339 278.69 279.418 278.69C279.735 278.928 280.843 278.611 281.794 278.215C281.002 278.057 279.972 277.819 279.497 278.136ZM280.289 276.553C280.21 276.632 280.051 276.711 280.051 276.79C280.051 277.107 280.923 277.582 281.873 277.899C281.635 277.424 281.239 276.711 280.764 276.553C280.685 276.553 280.606 276.473 280.527 276.473C280.527 276.473 280.368 276.473 280.289 276.553Z" fill="#263238"/>
<path d="M255.816 277.582C255.816 277.107 249.559 277.503 249.559 277.503C249.559 277.503 245.758 281.382 241.956 282.253C238.234 283.124 240.293 285.341 244.491 285.341C248.688 285.341 251.856 285.341 254.787 285.341C257.796 285.341 255.975 282.807 255.816 277.582Z" fill="#263238"/>
<path d="M245.758 278.928C245.599 278.849 245.52 278.611 245.599 278.294C245.679 278.136 245.758 277.978 245.916 277.899C246.233 277.74 246.787 277.661 247.342 277.74C246.867 277.503 246.391 277.107 246.391 276.79C246.391 276.553 246.55 276.394 246.787 276.236C247.025 276.078 247.342 276.078 247.579 276.236C248.451 276.553 248.926 278.057 249.005 278.136C249.005 278.215 249.005 278.215 249.005 278.294C249.005 278.294 249.005 278.294 248.926 278.374C248.609 278.532 247.183 279.165 246.312 279.165C246.075 279.086 245.837 279.007 245.758 278.928ZM246.075 278.136C245.995 278.215 245.916 278.294 245.916 278.374C245.837 278.611 245.916 278.69 245.995 278.69C246.312 278.928 247.421 278.611 248.371 278.215C247.579 278.057 246.55 277.819 246.075 278.136ZM246.867 276.553C246.787 276.632 246.629 276.711 246.629 276.79C246.629 277.107 247.5 277.582 248.451 277.899C248.213 277.424 247.817 276.711 247.342 276.553C247.263 276.553 247.183 276.473 247.104 276.473C247.104 276.473 247.025 276.473 246.867 276.553Z" fill="#263238"/>
<path d="M257.717 198.409L261.122 174.656V158.584C269.993 151.934 287.179 151.934 287.179 151.934C287.179 151.934 300.326 170.223 293.99 200.229L277.438 202.684L276.408 197.063L274.349 202.684L257.717 198.409Z" fill="#263238"/>
<path opacity="0.2" d="M257.717 198.409L261.122 174.656V158.584C269.993 151.934 287.179 151.934 287.179 151.934C287.179 151.934 300.326 170.223 293.99 200.229L277.438 202.684L276.408 197.063L274.349 202.684L257.717 198.409Z" fill="white"/>
<path opacity="0.2" d="M276.25 197.063L279.418 187.166C279.418 187.166 282.744 186.137 287.021 179.486C287.1 179.486 286.387 190.808 276.25 197.063Z" fill="black"/>
<path opacity="0.2" d="M269.201 163.176L276.645 162.464C276.645 162.464 278.467 166.027 277.833 171.252L273.081 174.102L269.676 171.648C269.676 171.648 269.517 165.393 269.201 163.176Z" fill="black"/>
<path opacity="0.2" d="M287.1 161.355C287.1 161.355 288.446 164.522 289.318 168.956L291.931 170.064L293.357 168.323C293.357 168.323 292.406 163.176 290.743 160.643L287.1 161.355Z" fill="black"/>
<path d="M257.4 197.063L274.903 202.209L273.795 204.505L257.163 199.438L257.4 197.063Z" fill="#263238"/>
<path d="M276.646 201.813L276.962 204.03L294.149 201.813L294.386 199.121L276.646 201.813Z" fill="#263238"/>
<path d="M280.289 155.18C285.358 154.388 288.763 154.388 288.763 154.388L287.734 152.646C284.882 152.567 282.031 152.725 279.417 153.121L280.289 155.18Z" fill="#263238"/>
<path d="M264.449 157.397C262.152 158.347 260.885 159.138 260.885 159.138V161.276C262.152 160.643 263.419 160.009 264.766 159.534L264.449 157.397Z" fill="#263238"/>
<path d="M265.558 159.138C270.468 157.159 275.22 156.051 279.18 155.338L278.388 153.2C273.002 154.071 268.33 155.655 265.241 157.001L265.558 159.138Z" fill="#263238"/>
<path d="M217.958 165.393L213.444 163.572L212.652 167.848C212.652 167.848 216.691 170.302 218.433 167.373L217.958 165.393Z" fill="#E4897B"/>
<path d="M211.226 163.81L209.801 167.135L212.731 167.768L213.523 163.572L211.226 163.81Z" fill="#E4897B"/>
<path d="M287.021 119.71L286.466 114.881L282.348 116.226C282.348 116.226 282.11 120.977 285.437 121.056L287.021 119.71Z" fill="#E4897B"/>
<path d="M285.199 113.06L281.635 113.376L282.427 116.306L286.466 114.96L285.199 113.06Z" fill="#E4897B"/>
<path opacity="0.2" d="M253.361 150.667C252.093 149.321 250.826 147.896 249.559 146.471C249.084 143.541 248.767 140.929 248.767 140.929C248.767 140.929 253.677 144.254 253.361 150.667Z" fill="black"/>
<path d="M249.242 139.583C248.767 141.562 248.213 143.383 247.658 145.204C247.104 147.025 246.391 148.846 245.678 150.667C244.966 152.488 244.253 154.23 243.382 156.051C242.986 156.922 242.51 157.793 242.114 158.663C241.877 159.138 241.639 159.534 241.402 159.93L241.085 160.564L240.926 160.88C240.847 161.039 240.689 161.276 240.61 161.434C239.659 162.78 238.63 163.572 237.6 164.206C236.57 164.839 235.62 165.235 234.59 165.631C232.61 166.343 230.71 166.818 228.73 167.214C224.849 167.927 221.047 168.323 217.166 168.323L216.85 164.839C218.592 164.443 220.414 164.047 222.235 163.572C223.978 163.176 225.799 162.622 227.462 162.068C229.126 161.514 230.789 160.88 232.294 160.168C233.006 159.772 233.719 159.376 234.274 158.98C234.828 158.584 235.224 158.109 235.303 157.951V157.872L235.462 157.555L235.778 156.922C235.937 156.526 236.174 156.13 236.333 155.734C236.65 154.942 237.046 154.071 237.362 153.28C237.996 151.617 238.63 149.875 239.263 148.213C239.897 146.471 240.451 144.729 240.926 143.066C241.481 141.324 241.956 139.583 242.431 137.92L249.242 139.583Z" fill="#DC897C"/>
<path d="M245.362 133.645C241.481 136.178 239.422 142.75 238.788 145.996L246.866 151.934L250.906 147.975C252.49 138.87 246.787 132.695 245.362 133.645Z" fill="#407BFF"/>
<path opacity="0.6" d="M245.362 133.645C241.481 136.178 239.422 142.75 238.788 145.996L246.866 151.934L250.906 147.975C252.49 138.87 246.787 132.695 245.362 133.645Z" fill="white"/>
<path d="M284.645 121.294L278.863 121.927C278.546 121.927 278.229 121.689 278.229 121.294L277.913 109.101C277.913 108.705 278.15 108.388 278.467 108.388L284.249 107.755C284.565 107.755 284.882 107.992 284.882 108.388L285.199 120.581C285.199 120.898 284.961 121.294 284.645 121.294Z" fill="#263238"/>
<path opacity="0.6" d="M284.645 121.294L278.863 121.927C278.546 121.927 278.229 121.689 278.229 121.294L277.913 109.101C277.913 108.705 278.15 108.388 278.467 108.388L284.249 107.755C284.565 107.755 284.882 107.992 284.882 108.388L285.199 120.581C285.199 120.898 284.961 121.294 284.645 121.294Z" fill="white"/>
<path d="M284.09 121.373L278.309 122.007C277.992 122.007 277.675 121.769 277.675 121.373L277.358 109.181C277.358 108.785 277.596 108.468 277.913 108.468L283.694 107.835C284.011 107.835 284.328 108.072 284.328 108.468L284.645 120.661C284.724 120.977 284.486 121.294 284.09 121.373Z" fill="#263238"/>
<path opacity="0.7" d="M284.09 121.373L278.309 122.007C277.992 122.007 277.675 121.769 277.675 121.373L277.358 109.181C277.358 108.785 277.596 108.468 277.913 108.468L283.694 107.835C284.011 107.835 284.328 108.072 284.328 108.468L284.645 120.661C284.724 120.977 284.486 121.294 284.09 121.373Z" fill="white"/>
<path d="M283.774 108.072L282.269 108.23L282.11 108.705L279.814 108.943L279.576 108.547L278.071 108.705C277.834 108.705 277.675 108.943 277.675 109.18L277.992 121.373C277.992 121.61 278.15 121.769 278.388 121.769L284.17 121.135C284.407 121.135 284.566 120.898 284.566 120.66L284.249 108.468C284.17 108.23 283.932 108.072 283.774 108.072Z" fill="#407BFF"/>
<path opacity="0.8" d="M282.982 112.426L278.784 112.901C278.547 112.901 278.388 112.743 278.388 112.505V111.318C278.388 111.08 278.547 110.843 278.784 110.843L282.982 110.368C283.219 110.368 283.378 110.526 283.378 110.764V111.951C283.378 112.189 283.219 112.426 282.982 112.426Z" fill="white"/>
</svg>
